<?xml version="1.0" encoding="iso-8859-1"?>
<!-- Generator: Adobe Illustrator 16.0.0, SVG Export Plug-In . SVG Version: 6.00 Build 0)  -->
<!DOCTYPE svg PUBLIC "-//W3C//DTD SVG 1.1//EN" "http://www.w3.org/Graphics/SVG/1.1/DTD/svg11.dtd">
<svg version="1.1" id="Capa_1" xmlns="http://www.w3.org/2000/svg" xmlns:xlink="http://www.w3.org/1999/xlink" x="0px" y="0px"
	 width="79.536px" height="79.536px" viewBox="0 0 79.536 79.536" style="enable-background:new 0 0 79.536 79.536;"
	 xml:space="preserve">
<g>
	<path style="fill:#DD5E5E;" d="M64.722,66.44c0.171,1.496-0.891,2.863-2.393,3.039c-1.471,0.166-2.858-0.88-3.045-2.392
		L57.84,55.116l-9.735-4.034l5.422,9.533c0.398,0.714,0.45,1.554,0.171,2.31l-5.732,14.846c-0.419,1.098-1.46,1.766-2.558,1.766
		c-0.326,0-0.652-0.057-0.974-0.182c-1.419-0.533-2.123-2.117-1.585-3.526l4.853-12.748l-6.789-9.062L27.175,42.616l-9.186,2.361
		c-0.259,0.082-0.528,0.119-0.797,0.119c-0.632,0-1.269-0.223-1.771-0.643l-8.461-7.161c-1.155-0.981-1.294-2.711-0.321-3.86
		c0.973-1.163,2.703-1.3,3.852-0.324l7.327,6.204c0,0,9.647-1.756,13.106-4.019c3.454-2.266,11.49-6.449,11.49-6.449
		c0.797-0.764,1.993-0.966,2.993-0.525l11.713,5.209c1.377,0.604,1.999,2.227,1.393,3.604c-0.611,1.396-2.231,2.009-3.609,1.406
		l-10.04-4.466l-4.433,2.175l6.592,5.349l13.748,8.477c1.196,0.197,2.112,1.165,2.258,2.361L64.722,66.44z M33.104,29.557
		c0,3.381-2.734,6.118-6.089,6.118c-3.381,0-6.125-2.742-6.125-6.118c0-3.374,2.75-6.105,6.125-6.105
		C30.375,23.452,33.104,26.183,33.104,29.557z M37.345,26.248l-1.476-14.403l6.586,5.494l0.674-12.391l5.479,8.244L56.514,0
		l0.591,13.862l9.683-5.468L61.749,20.5l11.594-3.029l-6.358,9.911l6.561,0.552l-11.061,9.253l5.013-6.995l-3.806-0.684l4.267-8.138
		l-8.679,1.101l2.175-8.313l-6.882,3.44l-0.435-8.95l-5.069,7.917l-4.138-5.458l-1.046,9.051l-6.473-4.53L37.345,26.248z"/>
</g>
<g>
</g>
<g>
</g>
<g>
</g>
<g>
</g>
<g>
</g>
<g>
</g>
<g>
</g>
<g>
</g>
<g>
</g>
<g>
</g>
<g>
</g>
<g>
</g>
<g>
</g>
<g>
</g>
<g>
</g>
</svg>
