<?xml version="1.0" encoding="UTF-8" standalone="no"?>
<svg width="30px" height="30px" viewBox="0 0 30 30" version="1.1" xmlns="http://www.w3.org/2000/svg" xmlns:xlink="http://www.w3.org/1999/xlink">
    <!-- Generator: Sketch 39.1 (31720) - http://www.bohemiancoding.com/sketch -->
    <title>Group</title>
    <desc>Created with Sketch.</desc>
    <defs></defs>
    <g id="Page-3" stroke="none" stroke-width="1" fill="none" fill-rule="evenodd">
        <g id="Desktop-HD" transform="translate(-1282.000000, -26.000000)" fill="#000000">
            <g id="Messaging" transform="translate(1262.000000, 25.000000)">
                <g id="settings" transform="translate(20.000000, 1.000000)">
                    <g id="Capa_1">
                        <g id="Group">
                            <path d="M28.4467641,11.8434864 L26.34238,11.4864927 C26.1231733,10.7787683 25.8413361,10.096096 25.4968685,9.44473904 L26.736952,7.70987474 C27.263048,6.97083507 27.1816284,5.96248434 26.5365344,5.32365344 L24.6701461,3.45726514 C24.3194154,3.10653445 23.8559499,2.91237996 23.3611691,2.91237996 C22.9728601,2.91237996 22.6033403,3.03137787 22.2901879,3.2568476 L20.5490605,4.49693111 C19.8726514,4.13993737 19.1649269,3.84557411 18.4321503,3.62636743 L18.0814196,1.54703549 C17.9311065,0.651419624 17.1607516,6.26304802e-05 16.2526096,6.26304802e-05 L13.6158664,6.26304802e-05 C12.7077244,6.26304802e-05 11.9373695,0.651419624 11.7870564,1.54703549 L11.4237996,3.67647182 C10.7223382,3.8956785 10.039666,4.18377871 9.38830898,4.53450939 L7.66597077,3.29442589 C7.35281837,3.06895616 6.97703549,2.94995825 6.58872651,2.94995825 C6.09394572,2.94995825 5.62421712,3.14411273 5.27974948,3.49484342 L3.40709812,5.36123173 C2.76826722,6.00006263 2.68058455,7.00841336 3.20668058,7.74745303 L4.45929019,9.50736952 C4.11482255,10.1649896 3.83924843,10.8476618 3.6263048,11.5553862 L1.54697286,11.9061169 C0.651356994,12.0564301 0,12.826785 0,13.7349269 L0,16.3716701 C0,17.2798121 0.651356994,18.050167 1.54697286,18.2004802 L3.67640919,18.563737 C3.89561587,19.2651983 4.18371608,19.9478706 4.53444676,20.5992276 L3.3006263,22.3153027 C2.77453027,23.0543424 2.8559499,24.0626931 3.50104384,24.701524 L5.36743215,26.5679123 C5.71816284,26.918643 6.18162839,27.1127975 6.67640919,27.1127975 C7.06471816,27.1127975 7.434238,26.9937996 7.7473904,26.7683299 L9.50730689,25.5157203 C10.1398747,25.8476618 10.8037578,26.1169729 11.4864301,26.3299165 L11.8371608,28.4343006 C11.9874739,29.3299165 12.7578288,29.9812735 13.6659708,29.9812735 L16.308977,29.9812735 C17.217119,29.9812735 17.9874739,29.3299165 18.1377871,28.4343006 L18.4947808,26.3299165 C19.2025052,26.1107098 19.8851775,25.8288727 20.5365344,25.484405 L22.2713987,26.7244885 C22.5845511,26.9499582 22.960334,27.0689562 23.348643,27.0689562 L23.348643,27.0689562 C23.8434238,27.0689562 24.3068894,26.8748017 24.65762,26.524071 L26.5240084,24.6576827 C27.1628392,24.0188518 27.2505219,23.010501 26.7244259,22.2714614 L25.4843424,20.530334 C25.82881,19.872714 26.1169102,19.1900418 26.3298539,18.4885804 L28.434238,18.1378497 C29.3298539,17.9875365 29.9812109,17.2171816 29.9812109,16.3090397 L29.9812109,13.6722965 C29.993737,12.7641545 29.34238,11.9937996 28.4467641,11.8434864 L28.4467641,11.8434864 Z M28.302714,16.3090397 C28.302714,16.3904593 28.2463466,16.4593528 28.1649269,16.4718789 L25.5344468,16.9102923 C25.2025052,16.9666597 24.9394572,17.2109186 24.8580376,17.530334 C24.6200418,18.4510021 24.256785,19.3340919 23.7682672,20.1545511 C23.5991649,20.4426514 23.611691,20.7996451 23.8058455,21.0752192 L25.3528184,23.2547599 C25.3966597,23.3173904 25.3903967,23.4113361 25.3340292,23.4677035 L23.4676409,25.3340919 C23.4237996,25.3779332 23.3799582,25.3841962 23.348643,25.3841962 C23.3110647,25.3841962 23.2797495,25.3716701 23.2546973,25.352881 L21.0814196,23.8059081 C20.8121086,23.6117537 20.4488518,23.5992276 20.1607516,23.7683299 C19.3402923,24.2568476 18.4572025,24.6201044 17.5365344,24.8581002 C17.2108559,24.9395198 16.9665971,25.2088309 16.9164927,25.5345094 L16.4718163,28.1649896 C16.4592902,28.2464092 16.3903967,28.3027766 16.308977,28.3027766 L13.6722338,28.3027766 C13.5908142,28.3027766 13.5219207,28.2464092 13.5093946,28.1649896 L13.0709812,25.5345094 C13.0146138,25.2025678 12.7703549,24.9395198 12.4509395,24.8581002 C11.5553236,24.6263674 10.691023,24.2693737 9.88308977,23.8059081 C9.75156576,23.7307516 9.60125261,23.6931733 9.45720251,23.6931733 C9.28810021,23.6931733 9.11273486,23.7432777 8.96868476,23.8497495 L6.77661795,25.4092484 C6.74530271,25.4280376 6.71398747,25.4405637 6.68267223,25.4405637 C6.65762004,25.4405637 6.60751566,25.4343006 6.56367432,25.3904593 L4.69728601,23.524071 C4.64091858,23.4677035 4.63465553,23.3800209 4.67849687,23.3111273 L6.21920668,21.1503758 C6.41336117,20.8748017 6.42588727,20.5115449 6.25678497,20.2234447 C5.76826722,19.4092484 5.39248434,18.5261587 5.15448852,17.6054906 C5.06680585,17.2860752 4.80375783,17.0418163 4.47807933,16.9854489 L1.82881002,16.5345094 C1.7473904,16.5219833 1.69102296,16.4530898 1.69102296,16.3716701 L1.69102296,13.7349269 C1.69102296,13.6535073 1.7473904,13.5846138 1.82881002,13.5720877 L4.44050104,13.1336743 C4.77244259,13.0773069 5.04175365,12.833048 5.12317328,12.5073695 C5.35490605,11.5867015 5.71189979,10.6973486 6.19415449,9.87688935 C6.36325678,9.58878914 6.34446764,9.23179541 6.15031315,8.96248434 L4.5908142,6.77041754 C4.54697286,6.70778706 4.55323591,6.61384134 4.60960334,6.5574739 L6.47599165,4.69108559 C6.51983299,4.64724426 6.56367432,4.64098121 6.59498956,4.64098121 C6.63256785,4.64098121 6.66388309,4.65350731 6.68893528,4.67229645 L8.84968685,6.21300626 C9.12526096,6.40716075 9.48851775,6.41968685 9.77661795,6.25058455 C10.5908142,5.76206681 11.473904,5.38628392 12.394572,5.1482881 C12.7139875,5.06060543 12.9582463,4.79755741 13.0146138,4.47187891 L13.4655532,1.8226096 C13.4780793,1.74118998 13.5469729,1.68482255 13.6283925,1.68482255 L16.2651357,1.68482255 C16.3465553,1.68482255 16.4154489,1.74118998 16.4279749,1.8226096 L16.8663883,4.43430063 C16.9227557,4.76624217 17.1670146,5.03555324 17.4926931,5.11697286 C18.4384134,5.35496868 19.3402923,5.72448852 20.1795407,6.21926931 C20.4676409,6.38837161 20.8246347,6.37584551 21.1002088,6.18169102 L23.2609603,4.62845511 C23.2922756,4.60966597 23.3235908,4.59713987 23.3549061,4.59713987 C23.3799582,4.59713987 23.4300626,4.60340292 23.473904,4.64724426 L25.3402923,6.51363257 C25.3966597,6.57 25.4029228,6.65768267 25.3590814,6.7265762 L23.8121086,8.89985386 C23.6179541,9.16916493 23.605428,9.53242171 23.7745303,9.82052192 C24.263048,10.6409812 24.6263048,11.524071 24.8643006,12.444739 C24.9457203,12.7704175 25.2150313,13.0146764 25.5407098,13.0647808 L28.17119,13.5094572 C28.2526096,13.5219833 28.308977,13.5908768 28.308977,13.6722965 L28.308977,16.3090397 L28.302714,16.3090397 L28.302714,16.3090397 Z" id="Shape"></path>
                            <path d="M14.993737,8.51780793 C11.4237996,8.51780793 8.52400835,11.4175992 8.52400835,14.9875365 C8.52400835,18.5574739 11.4237996,21.4572651 14.993737,21.4572651 C18.5636743,21.4572651 21.4634656,18.5574739 21.4634656,14.9875365 C21.4634656,11.4175992 18.5636743,8.51780793 14.993737,8.51780793 L14.993737,8.51780793 Z M14.993737,19.7662422 C12.3569937,19.7662422 10.2150313,17.6242797 10.2150313,14.9875365 C10.2150313,12.3507933 12.3569937,10.2088309 14.993737,10.2088309 C17.6304802,10.2088309 19.7724426,12.3507933 19.7724426,14.9875365 C19.7724426,17.6242797 17.6304802,19.7662422 14.993737,19.7662422 L14.993737,19.7662422 Z" id="Shape"></path>
                        </g>
                    </g>
                </g>
            </g>
        </g>
    </g>
</svg>