<?xml version="1.0" encoding="UTF-8"?>
<svg width="400px" height="300px" viewBox="0 0 400 300" version="1.1" xmlns="http://www.w3.org/2000/svg" xmlns:xlink="http://www.w3.org/1999/xlink">
    <!-- Generator: Sketch 45.1 (43504) - http://www.bohemiancoding.com/sketch -->
    <title>Red_Silhouette_-_Brain</title>
    <desc>Created with Sketch.</desc>
    <defs></defs>
    <g id="Page-2" stroke="none" stroke-width="1" fill="none" fill-rule="evenodd">
        <g id="Design" transform="translate(-864.000000, -799.000000)" fill-rule="nonzero" fill="#00AB6C">
            <g id="Group-14" transform="translate(864.000000, 216.000000)">
                <g id="Red_Silhouette_-_Brain" transform="translate(0.000000, 583.000000)">
                    <path d="M237.07118,298.14591 C244.33128,297.02235 248.28938,295.88992 253.22518,293.52425 C262.37708,289.13791 269.23408,280.27422 269.75508,272.15713 C269.96988,268.80872 269.79908,267.89803 267.91918,262.37424 C265.88958,256.41049 262.08518,247.66624 257.88988,239.3225 C256.73308,237.02179 255.88568,235.04026 256.00688,234.91908 C256.35878,234.56719 259.97758,238.88388 263.43168,243.7758 C268.07238,250.34833 271.43938,256.94946 273.90138,264.30209 L276.07168,270.78343 L279.82008,272.34392 C287.19748,275.41516 292.28958,276.42109 301.66978,276.66021 C309.58268,276.86191 310.53558,276.78635 315.18618,275.58812 C324.13328,273.2829 330.86038,269.39121 337.00438,262.9661 C341.37088,258.39993 343.25058,255.54892 345.86258,249.53054 C348.78368,242.80016 350.16028,240.54206 353.46388,237.06215 C357.07148,233.26205 360.65398,230.7447 369.27298,225.95349 C384.19728,217.65722 389.11498,213.22541 393.06628,204.5109 C395.82188,198.43357 396.29498,195.72919 396.27468,186.16809 C396.25368,176.33513 395.51328,171.87572 392.29808,162.22471 C389.48328,153.77516 384.28118,143.84114 380.64558,139.97258 C379.17738,138.4104 376.90288,138.14249 375.20498,139.33181 C373.55948,140.48436 371.29108,144.36224 368.60178,150.62014 C362.80828,164.10127 351.28988,188.88319 351.73028,186.91924 C351.85368,186.3684 353.30518,180.05877 354.95568,172.89783 C358.63208,156.94755 359.21838,152.70337 358.86418,144.60466 C358.29878,131.67967 354.81268,121.42732 345.90468,106.49157 C339.87898,96.38854 335.04578,91.40378 328.21038,88.2423 C322.48098,85.59241 317.44038,84.41406 311.48968,84.33358 L306.23558,84.26248 L305.58258,86.49223 C305.22348,87.71855 304.56398,91.21139 304.11718,94.25408 C302.95248,102.18424 303.34828,108.0528 305.65548,117.06255 C307.94408,125.9994 308.35408,130.36802 307.25838,134.13732 C306.51788,136.68466 303.37588,141.19185 302.75788,140.59328 C302.61278,140.45272 302.84888,138.42462 303.28338,136.0864 C304.40128,130.06521 304.22168,128.0006 301.67238,117.56332 C300.42788,112.46804 299.27468,106.49642 299.10978,104.29306 C298.62158,97.7727 299.93468,88.69049 303.48928,74.00261 C305.19778,66.94278 305.13808,64.94303 303.08908,60.6025 C300.77108,55.69221 294.07558,49.79365 286.50458,45.99195 C276.81918,41.12852 262.78898,38.74999 255.01878,40.6542 C244.23608,43.29663 237.30348,50.42957 224.92858,71.61411 C214.50138,89.46452 208.27008,112.67265 208.89418,131.33434 C209.12838,138.33598 209.09738,138.69288 208.43698,136.59237 C205.48318,127.19753 205.00758,119.62717 206.72388,109.33005 C209.07778,95.20784 212.26458,85.56086 218.89198,72.49451 C224.95878,60.5333 225.97428,57.4599 225.71958,51.83041 C225.27278,41.95713 219.74508,36.64027 205.06428,31.96288 C182.72118,24.84431 156.26348,30.8958 149.52038,44.66707 C147.02338,49.76656 146.67558,52.48972 146.15768,70.99222 C145.40438,97.90631 144.99278,103.54366 143.41578,108.54956 C141.32388,115.18975 138.88898,119.4502 136.21778,121.14424 C134.98038,121.92893 133.45028,122.57097 132.81738,122.57097 C131.69948,122.57097 131.71508,122.50787 133.36648,120.34437 C137.51478,114.90977 139.65558,102.8136 140.43628,80.39818 L140.74518,71.52618 L138.49558,69.12116 C130.81388,60.90882 113.41458,56.39262 101.34718,59.47894 C94.275677,61.28755 88.100877,66.40131 84.334777,73.5682 C78.954077,83.80778 78.027077,93.65437 80.310877,116.31141 C81.383977,126.95656 81.438677,128.4585 80.790377,129.45648 C79.923877,130.79021 79.835777,130.79642 75.324077,129.84076 C73.396177,129.43239 70.085777,129.09437 67.967477,129.08962 C65.849277,129.08462 63.994777,128.88445 63.846277,128.64434 C63.697877,128.40417 64.529677,127.86094 65.694677,127.43704 C67.539877,126.76572 69.041177,126.39696 74.450077,125.28641 C75.546377,125.06132 75.570177,124.92841 75.276877,120.68303 C75.017077,116.92189 74.806877,116.15732 73.771577,115.20802 C71.361277,112.99765 64.569377,112.30154 61.128077,113.91214 C58.200377,115.28239 53.895777,119.93138 52.131277,123.62883 C49.582677,128.96903 48.876877,132.53608 49.171077,138.58917 C49.479777,144.93887 50.660277,148.61263 56.172577,160.37869 C66.412077,182.23479 68.289377,193.06337 63.500477,202.6467 C62.679177,204.29041 61.233677,206.3143 60.288577,207.14417 C58.674977,208.56093 55.354877,209.68169 54.702877,209.02975 C54.541377,208.86825 55.113877,207.93358 55.975077,206.95268 C63.388677,198.50909 62.103077,185.96744 51.558077,163.86191 L48.203277,156.82907 L44.236977,156.21829 C35.426277,154.86157 27.691477,151.00318 22.738277,145.49411 C19.970977,142.41621 18.601977,139.90824 17.468777,135.84123 L16.631677,132.83664 L13.326977,137.94464 C6.984177,147.74881 3.0180772,155.72959 1.1828772,162.38175 C0.7269772,164.03427 0.2397772,167.8651 0.1001772,170.89473 C-0.1309228,175.90993 -0.0348228,176.75657 1.1734772,180.35066 C3.3402772,186.79555 7.828077,192.90323 14.032177,197.85058 C15.299877,198.86152 16.539277,199.67827 16.786377,199.6655 C17.033377,199.6525 17.911577,198.782 18.737877,197.73055 C19.564077,196.67909 21.601077,194.749 23.264577,193.44145 C26.285577,191.06667 32.008077,187.47199 32.008077,187.94896 C32.008077,188.08773 30.800477,189.62482 29.324477,191.36468 C22.754177,199.1097 20.530077,203.6272 20.115177,210.07014 C19.295277,222.80353 28.502677,236.13373 40.670577,239.82962 C43.534477,240.6995 45.018377,240.83741 49.454777,240.64597 C58.643077,240.24957 63.592477,237.59747 73.932577,227.52964 C77.865277,223.7004 81.083077,220.70618 81.083077,220.87574 C81.083077,221.04524 80.600077,222.47483 80.009777,224.05254 C78.600777,227.81844 76.254377,231.73992 73.031977,235.71429 L70.416777,238.93977 L71.986477,243.72652 C75.721977,255.11732 82.026777,261.65214 92.684277,265.17928 C99.38128,267.39566 104.80218,267.99202 114.63428,267.59406 C125.20738,267.16611 131.47768,266.28912 131.23318,265.27242 C130.15908,260.8061 130.99738,247.57991 132.73988,241.50253 L133.31418,239.49947 L133.70338,241.00176 C133.91748,241.82803 134.44618,246.67998 134.87838,251.78393 C135.31048,256.88782 136.00968,262.39042 136.43208,264.01185 C138.39978,271.56638 144.18048,278.41569 151.98088,282.43487 C158.87228,285.98564 164.95938,287.45429 173.05588,287.51964 C176.68178,287.54864 179.77238,287.44924 179.92398,287.2982 C180.07548,287.14717 179.63068,285.61523 178.93538,283.8939 C176.76618,278.5234 176.20658,274.38919 175.97668,262.03388 C175.73388,248.98625 175.54188,248.81244 179.01918,264.78808 C181.26788,275.11875 183.28958,281.31031 185.51658,284.68656 C189.69108,291.01512 199.55918,296.3076 211.50058,298.62224 C215.82118,299.45972 230.32768,299.18945 237.07118,298.14586 L237.07118,298.14591 Z M156.51588,254.37944 C151.97068,247.17945 149.63678,233.64083 151.15308,223.27084 C151.48688,220.98826 151.65598,219.01675 151.52888,218.8897 C150.86998,218.2307 142.69588,216.61919 137.46998,216.11802 C124.49528,214.87357 116.78658,217.10568 106.03218,225.22097 L104.38208,226.46612 L105.60948,224.72021 C106.28448,223.75994 108.49608,221.09983 110.52408,218.80883 C116.21318,212.38172 117.81848,207.99352 116.65128,202.06016 C115.88878,198.18484 114.16598,194.74694 111.80128,192.38228 C109.64428,190.22524 104.18888,187.53338 99.61128,186.36725 C95.44898,185.30693 88.201977,185.67504 83.658177,187.17764 C81.907277,187.75667 80.382077,188.1379 80.268977,188.02483 C79.962577,187.71841 83.879577,185.0937 86.776377,183.66427 C88.690977,182.71958 89.415377,182.0437 89.728577,180.91007 C90.346477,178.6737 89.792577,174.91912 88.393577,171.86365 C87.183477,169.22037 82.518177,164.00523 79.330377,161.73211 L77.828077,160.66087 L79.375577,160.64487 C81.492477,160.62337 86.302277,163.12595 89.439677,165.88169 C92.943377,168.95924 94.685777,172.58372 94.997577,177.44324 L95.23618,181.16032 L97.08138,181.16032 C106.47988,181.16032 116.09488,187.09663 120.18028,195.42159 C121.78288,198.68718 121.89278,199.22906 121.85538,203.68421 C121.82838,206.85555 121.53358,209.19076 120.97368,210.65836 C120.51078,211.87186 120.20028,212.93303 120.28388,213.01656 C120.36688,213.10006 121.77818,212.79016 123.41898,212.3278 C128.16678,210.99001 142.99998,211.15466 148.85098,212.61019 C151.28268,213.21506 153.36248,213.71001 153.47288,213.71001 C153.58318,213.71001 154.15628,212.7523 154.74628,211.58177 C158.01028,205.10608 163.67058,199.40873 170.30308,195.92346 L173.76988,194.10173 L170.24428,191.6258 C161.67198,185.60576 154.94668,173.56036 152.37868,159.62746 C151.72708,156.09242 151.50138,152.23277 151.50018,144.60453 C151.50018,132.02542 152.57588,123.25082 156.46208,104.20159 C160.71918,83.33458 162.28398,78.44992 165.73698,75.24863 C167.35118,73.7521 167.35608,73.75115 167.01318,74.99825 C165.78518,79.46467 160.52008,102.60956 159.26698,109.05024 C156.34588,124.06341 155.96418,127.82986 155.96878,141.59994 C155.96878,155.93583 156.55158,159.9772 159.96438,169.53176 C162.57528,176.84132 168.38678,184.74875 173.60548,188.09225 C176.55278,189.98059 183.55498,192.34404 189.49858,193.45669 C194.39278,194.37289 205.36648,194.23874 208.78288,193.22088 C209.86548,192.89834 211.78848,191.42654 213.79048,189.38798 C219.25108,183.82804 223.13328,181.61411 234.06658,177.82493 C235.99458,177.15676 240.16338,176.16364 243.33078,175.61806 C252.98598,173.95477 257.50848,171.19325 260.55708,165.0994 C264.55328,157.11137 264.72678,150.52386 261.38158,133.79041 C260.27508,128.25581 259.16498,121.3682 258.91458,118.4847 C258.41678,112.75109 258.92458,105.59396 260.01188,102.9343 C260.65248,101.37142 260.70418,101.57663 261.03628,107.00437 C261.69798,117.81763 263.81548,130.00358 266.87388,140.59841 C270.41828,152.87676 268.84688,163.88021 262.39128,171.98806 L260.39158,174.49965 L265.33088,175.09826 C278.27948,176.66761 286.07178,180.23065 291.09988,186.8812 L292.54828,188.79703 L296.35788,188.45836 C304.97348,187.69244 310.40948,185.3089 315.73098,179.96384 C321.96948,173.69782 325.19088,166.71316 327.65078,154.11905 C328.37708,150.40088 329.26658,144.42926 329.62748,140.84879 L330.28358,134.33885 L330.97468,136.59229 C331.43128,138.08117 331.64788,141.13944 331.61318,145.60605 C331.44748,166.89724 323.18188,184.09941 310.16498,190.24364 C307.34318,191.57557 301.70388,193.18087 297.23598,193.92411 C295.57408,194.20053 295.34008,194.39718 295.55198,195.33942 C295.68728,195.94124 296.17898,198.12372 296.64478,200.18937 C297.28478,203.02806 297.59948,208.1024 297.93338,220.9711 C298.36638,237.65087 298.90178,242.92612 300.45718,245.83231 C300.75558,246.38996 300.90508,246.941 300.78928,247.05683 C300.39318,247.45288 299.00028,245.50922 296.98828,241.75283 C294.51018,237.12647 294.11418,234.50381 293.40848,218.04659 C292.71658,201.91255 291.48128,196.24665 287.41838,190.57284 C283.72868,185.42022 278.05328,182.60988 267.91218,180.91379 C260.72808,179.71226 245.99528,180.07005 239.98938,181.59193 C229.73828,184.18944 224.06018,187.00139 218.60808,192.18034 C210.99218,199.41469 207.57518,209.10949 209.46778,218.11359 C210.83608,224.62323 217.44298,236.10626 225.51788,246.00933 C230.60338,252.24615 230.81728,252.57475 229.24458,251.73472 C228.59168,251.38594 224.66848,247.70161 220.52658,243.54732 C214.50538,237.50825 212.37928,234.99016 209.92098,230.98639 C206.66538,225.68415 204.57068,220.26067 204.01888,215.70546 C203.60998,212.32946 204.41278,206.19374 205.76798,202.338 C206.32178,200.7622 206.77498,199.46512 206.77498,199.4556 C206.77498,199.4456 203.33848,199.4165 199.13828,199.3902 C194.00348,199.3582 190.30148,199.07086 187.83828,198.51386 C182.50288,197.30737 179.94818,197.44739 175.75618,199.17597 C165.39568,203.4483 160.36628,208.8202 157.23898,218.95412 C156.58228,221.08212 156.04878,224.5044 155.87268,227.7175 C155.53658,233.85297 156.41948,248.06211 157.42908,252.76479 C157.81288,254.55242 158.04708,256.09478 157.94958,256.19228 C157.85158,256.28978 157.20688,255.47393 156.51588,254.37926 L156.51588,254.37944 Z M334.89838,216.49049 C333.06838,216.10846 329.99898,215.13537 328.07738,214.32799 C324.74518,212.92795 315.94158,208.32823 315.94158,207.98726 C315.94158,207.89816 318.54418,208.57531 321.72518,209.492 C332.40898,212.57096 340.43308,212.93586 348.40548,210.70546 C358.06518,208.00293 364.77748,202.82533 375.67158,189.67345 C378.97958,185.67985 381.90168,182.18702 382.16518,181.9116 C383.16618,180.8651 375.81868,195.08576 373.71418,198.26792 C368.06618,206.80816 360.12268,212.99405 351.39838,215.646 C346.94108,217.00087 339.23328,217.39537 334.89838,216.49049 L334.89838,216.49049 Z M119.88038,173.66546 C108.75768,165.33744 101.28988,156.90534 97.07908,147.91967 C94.164977,141.70107 93.448677,138.01965 93.754877,130.83363 C94.055777,123.76844 95.04898,120.07641 99.29298,110.2465 C101.71468,104.63713 102.69968,101.45412 104.46698,93.52667 C104.73308,92.3334 104.78938,92.36855 105.67088,94.27782 C107.32808,97.86695 106.97048,102.80238 104.56448,109.55114 C99.12868,124.79827 98.07988,131.7613 100.03918,139.59701 C102.72968,150.35709 110.48388,160.93654 124.04558,172.35015 C126.30578,174.25225 128.15488,176.06627 128.15488,176.3813 C128.15488,177.10406 127.12388,178.15586 126.41538,178.15586 C126.11968,178.15586 123.17888,176.13518 119.88038,173.66546 L119.88038,173.66546 Z M398.57588,148.04296 C401.90778,136.28616 399.33118,125.81116 391.49748,119.26627 L389.44148,117.5485 L387.52458,119.28029 C384.44238,122.06484 380.58448,122.26725 373.52948,120.01451 L369.77378,118.81528 L376.26168,118.67437 C383.85598,118.50941 384.21208,118.32593 385.08688,114.12722 C385.80518,110.67961 385.35248,102.24834 384.24978,98.53492 C383.37158,95.57785 380.33378,91.94731 377.55808,90.53766 C374.71888,89.09566 367.63818,87.01673 365.56628,87.01673 C363.82718,87.01673 363.53158,87.22961 362.12148,89.49807 C360.24698,92.51352 357.31688,94.43325 351.65478,96.35569 C349.36398,97.13348 347.48978,97.93004 347.48978,98.12589 C347.48978,98.32169 348.80468,100.57814 350.41178,103.1402 C352.01888,105.70226 354.19778,109.37587 355.25388,111.30381 C356.30998,113.23176 357.21478,114.86936 357.26458,114.94292 C357.31458,115.01652 358.67148,114.28411 360.28008,113.31543 C361.88878,112.34675 363.48148,111.55419 363.81938,111.55419 C364.15738,111.55419 364.82538,111.40397 365.30388,111.22033 C365.79758,111.03085 365.05878,112.3414 363.59518,114.25091 C362.17688,116.10139 360.87858,118.16484 360.70998,118.83641 C360.26318,120.61658 360.67598,123.24359 362.19638,128.31143 C362.93738,130.7801 363.78428,134.94896 364.07848,137.57557 C364.95018,145.36056 364.81068,145.13797 366.77398,141.87764 C370.47678,135.7284 373.05008,133.41582 376.86898,132.80514 C382.33418,131.93121 388.36138,138.32146 393.81828,150.77563 L395.75418,155.19392 L396.64238,153.46283 C397.13078,152.51068 398.00088,150.07175 398.57588,148.04296 L398.57588,148.04296 Z M45.297577,149.73749 C43.322477,144.62138 42.830277,134.85091 44.244477,128.83057 C46.282877,120.15282 52.050477,112.13328 58.389077,109.16364 C60.952677,107.96251 61.904577,107.79846 66.310477,107.79846 C69.064677,107.79846 71.994177,107.97333 72.820377,108.187 L74.322677,108.57555 L74.162577,99.92439 C73.857877,83.45594 76.311677,73.45753 82.664277,65.28265 L85.016177,62.25608 L82.736377,61.39066 C79.993177,60.34937 76.764277,58.18326 76.351377,57.10737 C76.186577,56.67801 76.113477,56.2796 76.188777,56.22191 C76.263777,56.16431 79.396577,56.57045 83.149877,57.12449 L89.973877,58.13183 L93.338677,56.28236 C95.18928,55.26515 98.09008,54.10588 99.78488,53.70622 C103.71028,52.78051 115.27668,52.76173 119.52988,53.67412 C122.54688,54.32131 122.70238,54.30614 123.41078,53.29469 C125.48178,50.33798 123.04168,47.20615 117.61088,45.85053 C115.83598,45.4075 112.46848,44.56692 110.12738,43.98258 C107.78628,43.39824 103.22598,41.66384 99.99328,40.12839 C95.23418,37.86789 93.090177,37.15901 88.726077,36.40305 C76.022277,34.20239 68.604877,35.71706 62.201877,41.81927 C58.258177,45.57781 55.599777,50.21614 52.535077,58.68603 C47.391777,72.90028 45.365877,75.2733 33.302877,81.21297 C24.618377,85.48905 21.555477,87.95772 19.212377,92.56986 C17.207777,96.51578 16.496777,99.71026 16.491977,104.79382 C16.481977,108.56047 17.673377,117.91776 18.223777,118.46815 C18.312777,118.55655 18.984177,117.31885 19.716877,115.71755 C20.449477,114.11621 22.669777,110.02456 24.650677,106.62492 C27.279977,102.11263 28.296677,100.73548 28.416577,101.52418 C28.630777,102.93313 26.749377,109.09169 25.126977,112.29267 C23.201677,116.09122 21.515777,121.39717 20.947377,125.44646 C19.686077,134.43237 23.777577,142.31711 32.048677,146.83952 C35.190877,148.55764 41.514577,150.54803 43.954877,150.58694 C45.355977,150.60944 45.579577,150.46786 45.297577,149.73744 L45.297577,149.73749 Z M40.668977,87.82196 C50.482377,84.53554 51.446177,83.54027 52.031777,76.0879 C52.385177,71.59008 52.629677,70.67673 54.261277,67.75918 C55.269177,65.95693 56.139177,64.48308 56.194477,64.48398 C56.249477,64.48398 56.295177,68.74969 56.295177,73.96135 C56.295177,82.79854 56.224177,83.53241 55.245477,84.85133 C52.540877,88.49504 47.679177,90.03514 39.018777,89.99162 L34.261577,89.96762 L40.668977,87.82184 L40.668977,87.82196 Z M350.75268,94.99326 C357.22548,91.22175 358.82778,88.62218 358.39628,82.59183 C357.95018,76.35676 354.01668,70.81695 348.11828,68.11657 C345.29518,66.8241 336.35578,65.02586 332.61468,64.99786 C330.58498,64.98286 330.49678,65.04796 330.16678,66.80698 C329.97858,67.81066 329.95198,70.76922 330.10778,73.38156 L330.39118,78.13132 L328.75248,75.68803 C325.35628,70.6247 324.01408,64.24872 325.67028,61.04613 C326.40578,59.62371 331.83438,55.66977 332.34738,56.1828 C332.50538,56.34075 332.39238,57.2585 332.09678,58.22227 C331.80108,59.18599 331.59428,59.97534 331.63738,59.9764 C331.68038,59.9764 334.52578,60.52879 337.96028,61.20152 C341.39488,61.87429 344.28768,62.34201 344.38878,62.24085 C344.76898,61.86062 343.32908,56.14259 342.38508,54.28421 C340.31528,50.20943 335.28888,46.59452 327.08778,43.28271 C323.12868,41.68392 313.42108,39.19387 298.42558,35.93063 C291.95918,34.52344 286.56968,33.27333 286.44908,33.15264 C286.32838,33.03196 290.99938,32.93321 296.82908,32.93321 C305.45358,32.93321 307.42858,32.80576 307.42858,32.24936 C307.42858,31.87324 306.63348,29.97599 305.66158,28.03333 C302.52268,21.7591 296.95528,17.16393 289.86898,14.99847 C285.87858,13.77911 278.63778,13.15231 274.12478,13.63559 C271.28248,13.94001 270.85168,14.11272 271.15988,14.82431 C271.35818,15.28221 271.62648,17.06758 271.75608,18.79182 C271.97418,21.69415 272.08948,21.94728 273.31008,22.20373 C274.88598,22.53478 287.11758,27.27712 288.90028,28.2483 L290.15228,28.9303 L288.90028,28.67275 C282.72668,27.40281 270.35798,25.923 265.93728,25.92546 C253.75488,25.93246 241.50908,29.22925 235.58138,34.09844 L234.09158,35.3222 L232.05468,31.74855 C230.93438,29.783 229.05208,26.37234 227.87158,24.16928 L225.72528,20.16371 L230.04298,24.59062 C232.48598,27.09544 234.62298,28.89033 234.96478,28.72458 C235.29708,28.56354 236.63488,27.66176 237.93788,26.72067 C242.49868,23.42659 252.31218,20.96333 260.99838,20.93233 C266.46878,20.91283 266.72728,20.74455 266.13508,17.58798 C265.10738,12.10966 251.15748,3.8757 239.07428,1.6152 C232.19088,0.32743 221.48148,0.78678 215.78868,2.61397 C211.41788,4.01686 205.91158,6.77212 204.79848,8.11332 C204.45358,8.52885 204.13748,9.60745 204.09608,10.51018 C204.02308,12.10646 204.08608,12.16254 206.52458,12.55544 C211.97198,13.43434 214.28638,13.99654 214.28638,14.44082 C214.28638,14.71574 208.54528,14.90568 200.23548,14.90568 C190.04228,14.90568 186.27908,14.7526 186.52898,14.34818 C187.24518,13.18946 191.20288,11.92859 195.15938,11.59858 C199.03198,11.27564 199.26348,11.19016 199.26348,10.08353 C199.26348,8.64383 196.76678,6.88619 192.50248,5.32391 C188.44178,3.83619 179.07368,3.72747 174.22528,5.11178 C169.61988,6.42674 165.80598,8.28798 164.90768,9.65888 C164.07698,10.92666 164.34838,11.84847 166.28768,14.34728 C167.51148,15.92414 167.45718,17.08351 166.08778,18.60844 C165.16138,19.64016 163.81688,20.09461 158.52488,21.16474 C154.98488,21.88058 151.83258,22.38095 151.51978,22.27669 C151.20688,22.17238 152.99238,21.03269 155.48758,19.74397 C162.15288,16.30146 162.08868,16.36261 160.88958,14.60047 C160.34788,13.80435 159.63878,12.53331 159.31378,11.7759 C158.74598,10.45229 158.58028,10.39881 155.04578,10.39881 C148.99898,10.39881 143.63218,12.84258 139.29688,17.57015 C137.04578,20.0249 136.73948,20.93674 137.85468,21.86235 C138.23198,22.17548 139.17428,23.83682 139.94858,25.55419 C141.92278,29.93273 142.21178,35.49492 140.72038,40.40532 C140.12818,42.35489 139.56158,43.95003 139.46128,43.95003 C139.36088,43.95003 139.25248,42.07316 139.22018,39.77921 C139.11248,32.11736 136.85648,26.45026 133.02408,24.21455 C131.86078,23.53596 128.99368,22.48576 126.65258,21.88078 C118.86758,19.86906 108.31988,21.4326 104.47308,25.1686 C101.49668,28.05927 101.35478,32.46349 104.13598,35.63108 C105.65688,37.36337 105.99518,37.49016 114.38388,39.47189 C120.29438,40.86812 125.52198,43.38186 127.83158,45.93826 C129.42378,47.7007 129.65718,48.28214 129.65718,50.48626 C129.65718,51.87628 129.30258,53.69931 128.86918,54.53749 C128.43568,55.37567 128.15398,56.10368 128.24318,56.15531 C128.33218,56.20691 129.85248,56.91838 131.62128,57.73628 C133.38998,58.55417 136.04778,60.06839 137.52748,61.10121 C139.00708,62.13404 140.28708,62.97908 140.37198,62.97908 C140.45698,62.97908 140.67998,60.79054 140.86808,58.11566 C141.67138,46.68821 144.35608,39.75673 150.06478,34.3714 C155.53348,29.21243 163.14688,25.91419 173.63448,24.16051 C179.90698,23.11171 193.10858,23.34462 199.98168,24.62537 C210.17258,26.52437 219.25608,30.7355 224.70118,36.08542 C227.78678,39.11705 230.63978,44.41724 231.11518,48.00076 C231.29458,49.35333 231.48058,50.45997 231.52848,50.45997 C231.57648,50.45997 233.87128,48.26286 236.62828,45.57751 C245.11078,37.31555 250.50728,34.88559 261.10788,34.55468 C266.38598,34.38993 268.47558,34.54468 272.15078,35.37413 C293.57718,40.20791 308.87878,52.47845 309.74148,65.51841 C309.93328,68.41879 309.72448,70.24407 308.79338,73.80105 L307.59918,78.36342 L312.40628,78.67845 C325.24518,79.51984 337.81898,85.61093 344.42088,94.18723 C345.62488,95.75137 346.75518,97.03107 346.93268,97.03107 C347.11008,97.03107 348.82908,96.11407 350.75268,94.99326 L350.75268,94.99326 Z" id="path3960"></path>
                </g>
            </g>
        </g>
    </g>
</svg>