<?xml version="1.0" encoding="UTF-8"?>
<svg width="70px" height="70px" viewBox="0 0 70 70" version="1.1" xmlns="http://www.w3.org/2000/svg" xmlns:xlink="http://www.w3.org/1999/xlink">
    <!-- Generator: Sketch 45.1 (43504) - http://www.bohemiancoding.com/sketch -->
    <title>about</title>
    <desc>Created with Sketch.</desc>
    <defs></defs>
    <g id="Page-1" stroke="none" stroke-width="1" fill="none" fill-rule="evenodd">
        <g id="about" fill-rule="nonzero" fill="#FFFFFF">
            <rect id="Rectangle-path" x="31.4754098" y="48.9618033" width="6.99459016" height="6.99459016"></rect>
            <path d="M34.972623,0 C15.6578689,0 0,15.6578689 0,34.972623 C0,54.287377 15.6578689,69.9452459 34.972623,69.9452459 C54.287377,69.9452459 69.9452459,54.287377 69.9452459,34.972623 C69.9452459,15.6578689 54.287541,0 34.972623,0 Z M34.972623,63.6152459 C19.1537705,63.6152459 6.33,50.7914754 6.33,34.972623 C6.33,19.1537705 19.1537705,6.33 34.972623,6.33 C50.7834426,6.34918033 63.5959016,19.1616393 63.6152459,34.972623 C63.6152459,50.7916393 50.7916393,63.6152459 34.972623,63.6152459 Z" id="Shape"></path>
            <path d="M48.5770492,24.6557377 C46.7780328,17.1421311 39.2286885,12.5096721 31.715082,14.3086885 C25.3981967,15.8211475 20.9534426,21.4827869 20.9836066,27.9781967 L27.9781967,27.9781967 C28.3065574,24.1152459 31.7042623,21.2498361 35.5672131,21.5781967 C39.4301639,21.9065574 42.2955738,25.3042623 41.9672131,29.1672131 C41.2527869,32.6432787 38.1344262,35.0965574 34.5880328,34.972623 C32.8690164,34.972623 31.4754098,36.3662295 31.4754098,38.0852459 L31.4754098,38.0852459 L31.4754098,45.4644262 L38.47,45.4644262 L38.47,41.477541 C45.8667213,39.5701639 50.3659016,32.0821311 48.5770492,24.6557377 Z" id="Shape"></path>
        </g>
    </g>
</svg>