<?xml version="1.0" encoding="UTF-8"?>
<svg width="70px" height="70px" viewBox="0 0 70 70" version="1.1" xmlns="http://www.w3.org/2000/svg" xmlns:xlink="http://www.w3.org/1999/xlink">
    <!-- Generator: Sketch 45.1 (43504) - http://www.bohemiancoding.com/sketch -->
    <title>des</title>
    <desc>Created with Sketch.</desc>
    <defs></defs>
    <g id="Page-1" stroke="none" stroke-width="1" fill="none" fill-rule="evenodd">
        <g id="des" transform="translate(-1.000000, -1.000000)" fill-rule="nonzero" fill="#FFFFFF">
            <path d="M12.6666667,64.6766667 C26.0454167,65.785 21.2533333,51.5720833 33.6316667,51.4408333 L38.9925,55.915 C40.3283333,72.0675 20.57375,75.6695833 12.6666667,64.6766667 Z M53.6895833,43.9245833 C57.8516667,37.3941667 70.7433333,15.49 70.7433333,15.49 C71.77,13.6729167 69.4891667,11.7770833 67.8966667,13.11875 C67.8966667,13.11875 48.7283333,29.7845833 43.0729167,35.0666667 C38.6045833,39.2433333 38.5841667,41.1508333 37.1375,48.0370833 L42.0375,52.1204167 C48.5329167,49.4516667 50.4025,49.09 53.6895833,43.9245833 L53.6895833,43.9245833 Z M18.6925,55.2295833 C20.635,51.9220833 23.7908333,46.5466667 31.6629167,45.7154167 C32.92875,39.6283333 33.4333333,36.0904167 39.0916667,30.8054167 C43.09625,27.06625 53.4941667,17.9458333 59.5695833,12.6375 C56.6529167,6.1975 47.4916667,0.90375 35.7170833,1 C16.3970833,1.16041667 0.845416667,16.9395833 1,36.2683333 C1.06708333,44.75875 4.15291667,52.5170833 9.225,58.5370833 C13.9441667,59.7883333 16.155,59.5520833 18.6925,55.2295833 L18.6925,55.2295833 Z M38.9691667,9.04416667 C42.1833333,9.02666667 44.8170833,11.61375 44.8491667,14.8279167 C44.8608333,18.045 42.2766667,20.6875 39.0566667,20.7079167 C35.83375,20.7341667 33.2,18.14125 33.1825,14.92125 C33.1445833,11.6954167 35.7375,9.07041667 38.9691667,9.04416667 Z M21.4779167,14.8804167 C24.6920833,14.85125 27.3345833,17.4383333 27.34625,20.6641667 C27.38125,23.89 24.7795833,26.5120833 21.57125,26.5441667 C18.3454167,26.5645833 15.7116667,23.9745833 15.69125,20.7458333 C15.665,17.52875 18.2491667,14.9008333 21.4779167,14.8804167 L21.4779167,14.8804167 Z M15.6358333,32.3745833 C18.8616667,32.3541667 21.4983333,34.9470833 21.5158333,38.1641667 C21.545,41.3841667 18.9491667,44.0208333 15.7233333,44.04125 C12.5004167,44.0645833 9.87541667,41.4745833 9.85791667,38.2516667 C9.82583333,35.02875 12.4216667,32.4066667 15.6358333,32.3745833 Z M44.8929167,57.2595833 C44.9541667,63.79 42.3204167,68.10375 39.9870833,70.6383333 L39.8529167,70.7666667 C55.18,69.0429167 66.28375,58.2133333 58.12875,47.7570833 C54.1241667,53.7275 50.7379167,54.8795833 44.8929167,57.2595833 L44.8929167,57.2595833 Z" id="Shape"></path>
        </g>
    </g>
</svg>