<?xml version="1.0" encoding="UTF-8"?>
<svg width="363px" height="512px" viewBox="0 0 363 512" version="1.1" xmlns="http://www.w3.org/2000/svg" xmlns:xlink="http://www.w3.org/1999/xlink">
    <!-- Generator: Sketch 45.1 (43504) - http://www.bohemiancoding.com/sketch -->
    <title>css</title>
    <desc>Created with Sketch.</desc>
    <defs></defs>
    <g id="Page-1" stroke="none" stroke-width="1" fill="none" fill-rule="evenodd">
        <g id="css" fill-rule="nonzero">
            <polygon id="polygon2989" fill="#264DE4" points="362.734 100.62 329.688 470.819 181.145 512 33.011 470.877 0 100.62"></polygon>
            <polygon id="polygon2991" fill="#2965F1" points="301.397 447.246 329.637 130.894 181.367 130.894 181.367 480.523"></polygon>
            <polygon id="polygon2993" fill="#EBEBEB" points="75.677 268.217 79.747 313.627 181.367 313.627 181.367 268.217"></polygon>
            <polygon id="polygon2995" fill="#EBEBEB" points="181.367 176.305 181.21 176.305 67.499 176.305 71.627 221.716 181.367 221.716"></polygon>
            <polygon id="polygon2997" fill="#EBEBEB" points="181.367 433.399 181.367 386.153 181.168 386.206 130.594 372.55 127.361 336.333 102.786 336.333 81.776 336.333 88.138 407.634 181.158 433.457"></polygon>
            <polygon id="path2999" fill="#FFFFFF" points="85.367 0 140.367 0 140.367 23 108.367 23 108.367 46 140.367 46 140.367 69 85.367 69"></polygon>
            <polygon id="path3001" fill="#FFFFFF" points="151.367 0 206.367 0 206.367 20 174.367 20 174.367 24 206.367 24 206.367 70 151.367 70 151.367 49 183.367 49 183.367 45 151.367 45"></polygon>
            <polygon id="path3003" fill="#FFFFFF" points="217.367 0 272.367 0 272.367 20 240.367 20 240.367 24 272.367 24 272.367 70 217.367 70 217.367 49 249.367 49 249.367 45 217.367 45"></polygon>
            <polygon id="polygon3005" fill="#FFFFFF" points="237.128 313.627 231.857 372.521 181.21 386.191 181.21 433.435 274.304 407.634 274.987 399.962 285.658 280.411 286.766 268.217 294.964 176.305 181.21 176.305 181.21 221.716 245.198 221.716 241.066 268.217 181.21 268.217 181.21 313.627"></polygon>
        </g>
    </g>
</svg>