<?xml version="1.0" encoding="UTF-8"?>
<svg width="364px" height="512px" viewBox="0 0 364 512" version="1.1" xmlns="http://www.w3.org/2000/svg" xmlns:xlink="http://www.w3.org/1999/xlink">
    <!-- Generator: Sketch 45.1 (43504) - http://www.bohemiancoding.com/sketch -->
    <title>html</title>
    <desc>Created with Sketch.</desc>
    <defs></defs>
    <g id="Page-1" stroke="none" stroke-width="1" fill="none" fill-rule="evenodd">
        <g id="html" fill-rule="nonzero">
            <path d="M34.4,0 L57.4,0 L57.4,22.8 L78.6,22.8 L78.6,0 L101.6,0 L101.6,69 L78.6,69 L78.6,46 L57.6,46 L57.6,69 L34.4,69 M132,23 L111.7,23 L111.7,0 L175.4,0 L175.4,23 L155,23 L155,69 L132,69 M185.5,0 L209.6,0 L224.4,24.3 L239.2,0 L263.3,0 L263.3,69 L240.3,69 L240.3,34.8 L224.2,59.6 L208.1,34.8 L208.1,69 L185.5,69 M274.7,0 L297.7,0 L297.7,46.2 L330.3,46.2 L330.3,69 L274.7,69" id="Shape" fill="#FFFFFF"></path>
            <polyline id="Shape" fill="#E44D26" points="33.6 471 0.6 100.6 363.4 100.6 330.4 470.8 181.7 512"></polyline>
            <polyline id="Shape" fill="#F16529" points="182 480.5 182 131 330.3 131 302 447"></polyline>
            <path d="M68,176.3 L182,176.3 L182,221.7 L117.8,221.7 L122,268.2 L182,268.2 L182,313.5 L80.4,313.5 M82.4,336.3 L128,336.3 L131.2,372.6 L182,386.2 L182,433.6 L88.8,407.6" id="Shape" fill="#EBEBEB"></path>
            <path d="M295.6,176.3 L181.8,176.3 L181.8,221.7 L291.4,221.7 M287.3,268.2 L181.8,268.2 L181.8,313.6 L237.8,313.6 L232.5,372.6 L181.8,386.2 L181.8,433.4 L274.8,407.6" id="Shape" fill="#FFFFFF"></path>
        </g>
    </g>
</svg>