<?xml version="1.0" encoding="UTF-8"?>
<svg width="26px" height="25px" viewBox="0 0 26 25" version="1.1" xmlns="http://www.w3.org/2000/svg" xmlns:xlink="http://www.w3.org/1999/xlink">
    <!-- Generator: Sketch 45.1 (43504) - http://www.bohemiancoding.com/sketch -->
    <title>JQuery_logo</title>
    <desc>Created with Sketch.</desc>
    <defs></defs>
    <g id="Page-1" stroke="none" stroke-width="1" fill="none" fill-rule="evenodd">
        <g id="Development" transform="translate(-671.000000, -1085.000000)" fill-rule="nonzero" fill="#0868AC">
            <g id="JQuery_logo" transform="translate(671.000000, 1085.000000)">
                <path d="M1.64244505,5.90906593 C-0.64739011,9.20027473 -0.362335165,13.4821429 1.3869011,16.9791209 C1.42848901,17.0629615 1.47208242,17.145456 1.51500824,17.227956 C1.54251374,17.280272 1.56832967,17.3339286 1.59683516,17.3855742 C1.61293956,17.4164121 1.63103846,17.4466071 1.64781044,17.4761209 C1.6776511,17.5317885 1.70817308,17.5847775 1.73902473,17.6391044 C1.7933544,17.7350165 1.84902473,17.8302582 1.90603297,17.9255055 C1.93755769,17.9778187 1.96874725,18.0301346 2.00127747,18.0824505 C2.06432418,18.1843984 2.12904945,18.2850055 2.19511264,18.3856099 C2.22261813,18.4285357 2.24943956,18.4714615 2.27760989,18.513044 C2.36882967,18.6492005 2.46205769,18.7846841 2.5582967,18.9181538 C2.56068681,18.9215879 2.56331044,18.925544 2.56633242,18.9288681 C2.58144231,18.9503242 2.59820055,18.9711236 2.61361813,18.9925879 C2.69678846,19.1072775 2.78264011,19.2206291 2.86949725,19.3326429 C2.90136538,19.3735549 2.93354945,19.4144698 2.96574451,19.4553819 C3.04321429,19.5526374 3.12202198,19.6492225 3.20217308,19.745794 C3.23201374,19.7820137 3.26220055,19.818228 3.29238187,19.8537775 C3.40003297,19.980544 3.50969231,20.1066374 3.62169505,20.2300412 C3.62375549,20.2319643 3.6264011,20.234739 3.62839011,20.2367445 C3.63309615,20.2421016 3.63711264,20.2454533 3.64112912,20.2508104 C3.75045604,20.3701978 3.86246429,20.4869011 3.97582692,20.6036126 C4.01103571,20.6398324 4.04692308,20.6760522 4.08314011,20.7116016 C4.17100275,20.8001346 4.26020604,20.8873297 4.35042033,20.9738489 C4.38697253,21.0087253 4.42319231,21.0442747 4.45974725,21.0778104 C4.58013736,21.1911621 4.70187363,21.3025 4.82595604,21.4111621 C4.82801648,21.4130852 4.82962912,21.4145962 4.83165659,21.4158599 C4.85277747,21.4346511 4.87458242,21.4520797 4.89537637,21.4701868 C5.0047033,21.5647582 5.11604121,21.6586593 5.22804121,21.7512308 C5.27364835,21.7881209 5.31993132,21.8243407 5.36587363,21.861228 C5.45742582,21.9343352 5.54998352,22.0067747 5.64320879,22.0778709 C5.69250824,22.1154313 5.74180495,22.152989 5.79143956,22.1905522 C5.89439286,22.2663407 5.99801923,22.3407912 6.10264835,22.4139011 C6.14087637,22.4414066 6.17776923,22.468228 6.21599725,22.4943846 C6.22671154,22.5017747 6.23646429,22.5091374 6.24717857,22.5165275 C6.3464478,22.5849396 6.44805769,22.6506676 6.5493489,22.7164011 C6.59294505,22.7452473 6.63620604,22.7754203 6.68014011,22.8035907 C6.83574451,22.9021868 6.99371154,22.9994423 7.15332692,23.0933434 C7.19658516,23.1181786 7.24051923,23.1423049 7.28411264,23.1671236 C7.40148901,23.2348654 7.51953571,23.3012665 7.63925,23.3663269 C7.70397527,23.4012033 7.77037637,23.4340687 7.83577198,23.4676044 C7.92028022,23.5118709 8.00412088,23.5568077 8.08997253,23.5997335 C8.10940934,23.6091566 8.1295467,23.6185247 8.14865934,23.6278929 C8.1832033,23.6446511 8.21807967,23.6607582 8.25262088,23.6781978 C8.38575549,23.7419176 8.5199011,23.804294 8.6553956,23.8646593 C8.68424176,23.8774066 8.71207143,23.8901538 8.74057692,23.9028901 C8.89584615,23.9706291 9.05244505,24.0356896 9.21041209,24.0980687 C9.24830769,24.1134808 9.28653846,24.1282527 9.32476923,24.1430027 C9.47098352,24.1993462 9.61921978,24.2550165 9.76812088,24.3073297 C9.78690659,24.314033 9.80501374,24.3200769 9.82379121,24.3267527 C9.98711264,24.3837665 10.1521154,24.43675 10.3181044,24.4883956 C10.3576758,24.4997967 10.3975824,24.512544 10.437489,24.5239451 C10.606511,24.5749203 10.773533,24.6359533 10.9479011,24.6681484 C22.0220769,26.6876813 25.2388352,18.0132033 25.2388352,18.0132033 C22.5371868,21.5329835 17.7415824,22.4612802 13.1979011,21.4277637 C13.0258626,21.3888626 12.8588626,21.335206 12.6908407,21.2855714 C12.6482473,21.2728242 12.6063297,21.2601044 12.5644093,21.2473407 C12.4004203,21.1970385 12.237761,21.1440522 12.0761401,21.0883819 C12.0539918,21.0803599 12.0315357,21.072283 12.0090659,21.0642335 C11.8641923,21.0132582 11.720989,20.9596016 11.5784615,20.9046044 C11.538217,20.8885055 11.4979725,20.8730797 11.4577335,20.8569835 C11.301456,20.7952775 11.1461951,20.7308874 10.9929258,20.6638187 C10.9614011,20.6503846 10.9312198,20.6363104 10.9000302,20.6229011 C10.7682335,20.5632088 10.6377802,20.5028462 10.5079973,20.440467 C10.4704396,20.4223626 10.4328764,20.4049203 10.3946456,20.3861401 C10.2927225,20.3364148 10.1918984,20.2833929 10.0913489,20.2317445 C10.0240412,20.1963049 9.95563462,20.1627885 9.88887637,20.1257005 C9.76607418,20.0600412 9.64546978,19.9916346 9.52541484,19.9218544 C9.48475549,19.8990522 9.4435467,19.8770742 9.40261264,19.8534478 C9.24299725,19.7594918 9.08530495,19.662239 8.92926099,19.5636126 C8.88612912,19.5361401 8.84409615,19.5067445 8.80151374,19.4784478 C8.68832692,19.4053709 8.57568956,19.3309203 8.46470055,19.2545467 C8.42788736,19.2295467 8.3924478,19.2028984 8.35618407,19.1781731 C8.24904121,19.1023489 8.14299725,19.0257005 8.03777747,18.9479533 C7.98997527,18.9125137 7.94299725,18.8767995 7.89656868,18.8413599 C7.80014011,18.7674588 7.70426099,18.6930082 7.60920604,18.6166346 C7.56628022,18.5824313 7.5233544,18.5482225 7.4810989,18.5140137 C7.36037088,18.41475 7.24098352,18.3148104 7.12326923,18.2122005 C7.11087363,18.2014863 7.09744505,18.1907445 7.08403297,18.1793352 C6.9565989,18.0673269 6.83150824,17.9526319 6.70776923,17.8372747 C6.67188462,17.8030714 6.63700549,17.7695302 6.60179396,17.7353242 C6.51024176,17.6481319 6.42003297,17.5602692 6.33149451,17.4703929 C6.2959478,17.4348434 6.26039835,17.399967 6.22552198,17.3644176 C6.11284341,17.2490577 6.00217308,17.1323489 5.89384615,17.0136484 C5.88848901,17.0076044 5.88278846,17.0022473 5.87743132,16.9962033 C5.76273626,16.8707775 5.65072802,16.7426731 5.54105769,16.6132363 C5.51121703,16.5776896 5.48237088,16.5434835 5.45285714,16.5086071 C5.37103022,16.410011 5.28987363,16.3100742 5.21072802,16.2094588 C5.18105769,16.1731951 5.15138736,16.1361071 5.12199176,16.0987445 C5.02666209,15.9751181 4.93353022,15.8517665 4.84232143,15.7264918 C2.31971154,12.2855577 1.41347527,7.53967857 3.42968407,3.6421511" id="Shape"></path>
                <path d="M8.75054945,3.13626374 C7.09456044,5.51931319 7.18442308,8.70934066 8.47622527,11.2296703 C8.69286813,11.6522253 8.93633516,12.062033 9.20864286,12.4523901 C9.45680495,12.8078571 9.7318022,13.2310989 10.0611154,13.5168132 C10.1805055,13.6482747 10.3052582,13.7763791 10.4326813,13.9024725 C10.4648571,13.9353379 10.497739,13.9668626 10.5306071,13.9990577 C10.6543544,14.1191154 10.7801126,14.2371621 10.9102225,14.3518599 C10.9155797,14.3558709 10.9202857,14.361228 10.9256429,14.365294 C10.9270165,14.3666676 10.9283901,14.367217 10.9293159,14.368728 C11.0731841,14.4948242 11.2217335,14.6162253 11.3726676,14.7355962 C11.406217,14.7610632 11.4394038,14.7879148 11.4732747,14.8140714 C11.624522,14.9301071 11.7787967,15.0441264 11.9370659,15.1527802 C11.941772,15.1562143 11.9457885,15.1594835 11.9504945,15.1628352 C12.02025,15.2111264 12.0913462,15.2560659 12.1621044,15.3023434 C12.1959643,15.3244863 12.2281731,15.3479533 12.2623791,15.3687445 C12.3753956,15.4411813 12.4897473,15.5116071 12.6061154,15.5793489 C12.6225632,15.5894038 12.6386374,15.5981401 12.6547418,15.6075082 C12.7550165,15.6651868 12.8566264,15.7221978 12.9585879,15.7771978 C12.9941346,15.7973077 13.0303516,15.8147582 13.0665714,15.8335385 C13.1369973,15.8704258 13.2074231,15.907989 13.2791868,15.9435357 C13.2899011,15.9488929 13.3009918,15.9535907 13.3113626,15.9583159 C13.4572445,16.0300797 13.604467,16.0991676 13.7547143,16.1648956 C13.7868901,16.178989 13.8201099,16.1917088 13.8526374,16.2051374 C13.9726951,16.2561126 14.0940962,16.3057473 14.2161538,16.3526978 C14.2677995,16.3721484 14.3201126,16.3909286 14.3717582,16.409706 C14.4824286,16.4506181 14.5934313,16.4881813 14.7054396,16.525739 C14.7560769,16.5418379 14.8057143,16.5586044 14.8563516,16.574033 C15.0156429,16.6236648 15.1729176,16.6860412 15.3389341,16.7135412 C23.8892088,18.1300797 25.8631099,11.5470577 25.8631099,11.5470577 C24.0837143,14.1098599 20.6378352,15.3324973 16.9606374,14.3781016 C16.7973159,14.3351758 16.6363516,14.2882253 16.4763791,14.2379176 C16.4274176,14.2231648 16.3794588,14.2070797 16.3308324,14.1909725 C16.2171484,14.1540797 16.1041319,14.1151786 15.9921236,14.0742637 C15.9408159,14.0554725 15.8895082,14.036706 15.8392005,14.0172555 C15.7164588,13.9703049 15.5950577,13.9213434 15.4746676,13.8703681 C15.4418049,13.8562747 15.4085989,13.8435549 15.3764038,13.828783 C15.2254945,13.7630522 15.0769258,13.6939698 14.9303874,13.6215302 C14.8549313,13.5846429 14.7808159,13.5457418 14.7067033,13.507511 C14.6637775,13.4853956 14.6205165,13.4632445 14.5775879,13.4411099 C14.4823462,13.3894643 14.3877775,13.3358077 14.2945385,13.2814808 C14.2724231,13.2687335 14.2492665,13.2566456 14.2267967,13.2432473 C14.1110962,13.1755055 13.9970742,13.1057527 13.8840495,13.0339863 C13.8491731,13.0118434 13.8156374,12.987706 13.7807582,12.9649011 C13.7063077,12.9166099 13.6318599,12.8676484 13.5587527,12.8180137 C13.4011319,12.7093571 13.2478736,12.5953352 13.0966374,12.4799643 C13.061761,12.452456 13.0268846,12.4256374 12.9926786,12.3981374 C11.3830632,11.1272582 10.107239,9.39071978 9.5006456,7.42148901 C8.86493132,5.37918132 9.00201923,3.0865989 10.1033929,1.22615934" id="Shape"></path>
                <path d="M14.7288462,1.06456044 C13.7526099,2.50123626 13.6567033,4.28543956 14.3341209,5.87225275 C15.0484341,7.55642857 16.5122802,8.87774725 18.2206593,9.50412088 C18.2910852,9.5303022 18.361511,9.55375275 18.4329423,9.57789835 C18.4641236,9.58729396 18.4949808,9.59803571 18.5265082,9.6073956 C18.6271154,9.63892033 18.7270522,9.67581044 18.8310137,9.69526099 C23.5521676,10.6074313 24.8326621,7.27262363 25.1735962,6.78179945 C24.0518379,8.39688187 22.166728,8.7845467 19.8538159,8.22317308 C19.6711236,8.17866758 19.4702995,8.11273352 19.2942005,8.05037088 C19.0683764,7.96987637 18.8458489,7.87811813 18.6296401,7.77427198 C18.2189258,7.57701923 17.8274423,7.33745879 17.4645302,7.06328297 C15.39475,5.4929533 14.1090357,2.49707418 15.4595852,0.057239011" id="Shape"></path>
            </g>
        </g>
    </g>
</svg>