<?xml version="1.0" encoding="UTF-8"?>
<svg width="315px" height="126px" viewBox="0 0 315 126" version="1.1" xmlns="http://www.w3.org/2000/svg" xmlns:xlink="http://www.w3.org/1999/xlink">
    <!-- Generator: Sketch 45.1 (43504) - http://www.bohemiancoding.com/sketch -->
    <title>Microsoft_.NET_Logo</title>
    <desc>Created with Sketch.</desc>
    <defs>
        <linearGradient x1="49.9972467%" y1="-19.5160457%" x2="49.9972467%" y2="129.625092%" id="linearGradient-1">
            <stop stop-color="#0994DC" offset="0%"></stop>
            <stop stop-color="#66CEF5" offset="35.000601%"></stop>
            <stop stop-color="#66CEF5" offset="35.000601%"></stop>
            <stop stop-color="#127BCA" offset="84.616101%"></stop>
            <stop stop-color="#127BCA" offset="84.616101%"></stop>
            <stop stop-color="#127BCA" offset="100%"></stop>
        </linearGradient>
        <linearGradient x1="50.0007616%" y1="-19.5161868%" x2="50.0007616%" y2="129.624154%" id="linearGradient-2">
            <stop stop-color="#0E76BC" offset="0%"></stop>
            <stop stop-color="#36AEE8" offset="36.0001%"></stop>
            <stop stop-color="#36AEE8" offset="36.0001%"></stop>
            <stop stop-color="#00ADEF" offset="84.616101%"></stop>
            <stop stop-color="#00ADEF" offset="84.616101%"></stop>
            <stop stop-color="#00ADEF" offset="100%"></stop>
        </linearGradient>
        <linearGradient x1="49.9991979%" y1="110.921751%" x2="49.9991979%" y2="-6.21395776%" id="linearGradient-3">
            <stop stop-color="#1C63B7" offset="0%"></stop>
            <stop stop-color="#33BDF2" offset="50%"></stop>
            <stop stop-color="#33BDF2" stop-opacity="0.41960785" offset="100%"></stop>
        </linearGradient>
        <linearGradient x1="50.0009899%" y1="-19.5149993%" x2="50.0009899%" y2="129.627315%" id="linearGradient-4">
            <stop stop-color="#166AB8" offset="0%"></stop>
            <stop stop-color="#36AEE8" offset="39.999399%"></stop>
            <stop stop-color="#36AEE8" offset="39.999399%"></stop>
            <stop stop-color="#0798DD" offset="84.616101%"></stop>
            <stop stop-color="#0798DD" offset="84.616101%"></stop>
            <stop stop-color="#0798DD" offset="100%"></stop>
        </linearGradient>
        <linearGradient x1="49.9985422%" y1="-19.5211325%" x2="49.9985422%" y2="129.626892%" id="linearGradient-5">
            <stop stop-color="#124379" offset="0%"></stop>
            <stop stop-color="#1487CB" offset="38.9999%"></stop>
            <stop stop-color="#1487CB" offset="38.9999%"></stop>
            <stop stop-color="#165197" offset="78.022802%"></stop>
            <stop stop-color="#165197" offset="78.022802%"></stop>
            <stop stop-color="#165197" offset="100%"></stop>
        </linearGradient>
        <linearGradient x1="0.000304652977%" y1="50.000544%" x2="100.000291%" y2="50.000544%" id="linearGradient-6">
            <stop stop-color="#33BDF2" stop-opacity="0.69803923" offset="0%"></stop>
            <stop stop-color="#1DACD8" offset="100%"></stop>
        </linearGradient>
        <linearGradient x1="50.0095709%" y1="94.6864084%" x2="50.0095709%" y2="-3.02458407%" id="linearGradient-7">
            <stop stop-color="#136AB4" offset="0%"></stop>
            <stop stop-color="#59CAF5" stop-opacity="0.54901963" offset="60.000002%"></stop>
            <stop stop-color="#59CAF5" stop-opacity="0.23529412" offset="100%"></stop>
        </linearGradient>
        <linearGradient x1="-0.000760861053%" y1="49.999714%" x2="99.9992241%" y2="49.999714%" id="linearGradient-8">
            <stop stop-color="#05A1E6" stop-opacity="0.24705882" offset="0%"></stop>
            <stop stop-color="#05A1E6" offset="100%"></stop>
        </linearGradient>
        <linearGradient x1="49.9983236%" y1="124.313712%" x2="49.9983236%" y2="-9.42137278%" id="linearGradient-9">
            <stop stop-color="#318ED5" offset="0%"></stop>
            <stop stop-color="#38A7E4" offset="100%"></stop>
        </linearGradient>
        <linearGradient x1="49.99857%" y1="91.1999524%" x2="49.99857%" y2="-76.7854074%" id="linearGradient-10">
            <stop stop-color="#05A1E6" offset="0%"></stop>
            <stop stop-color="#05A1E6" stop-opacity="0.54901963" offset="100%"></stop>
        </linearGradient>
        <linearGradient x1="50.0000694%" y1="100.01049%" x2="50.0000694%" y2="0.0101898204%" id="linearGradient-11">
            <stop stop-color="#1959A6" offset="0%"></stop>
            <stop stop-color="#05A1E6" offset="50%"></stop>
            <stop stop-color="#05A1E6" offset="50%"></stop>
            <stop stop-color="#7EC5EA" offset="91.758698%"></stop>
            <stop stop-color="#7EC5EA" offset="100%"></stop>
        </linearGradient>
        <linearGradient x1="59.8041209%" y1="94.5677442%" x2="38.4710575%" y2="5.75513731%" id="linearGradient-12">
            <stop stop-color="#165096" offset="0%"></stop>
            <stop stop-color="#0D82CA" offset="100%"></stop>
        </linearGradient>
        <linearGradient x1="49.9946843%" y1="76.9980959%" x2="49.9946843%" y2="-3.29893613%" id="linearGradient-13">
            <stop stop-color="#05A1E6" offset="0%"></stop>
            <stop stop-color="#0495D6" offset="87.362701%"></stop>
            <stop stop-color="#0495D6" offset="100%"></stop>
        </linearGradient>
        <linearGradient x1="65.2631169%" y1="-4.16143813%" x2="34.2626975%" y2="105.843625%" id="linearGradient-14">
            <stop stop-color="#38A7E4" stop-opacity="0.32941177" offset="0%"></stop>
            <stop stop-color="#0E88D3" offset="96.153301%"></stop>
            <stop stop-color="#0E88D3" offset="96.153301%"></stop>
            <stop stop-color="#0E88D3" offset="100%"></stop>
        </linearGradient>
        <linearGradient x1="50.016714%" y1="-0.295776148%" x2="50.016714%" y2="101.881944%" id="linearGradient-15">
            <stop stop-color="#168CD4" offset="0%"></stop>
            <stop stop-color="#1C87CC" offset="50%"></stop>
            <stop stop-color="#154B8D" offset="100%"></stop>
        </linearGradient>
        <linearGradient x1="16.6738062%" y1="205.564966%" x2="87.8125992%" y2="-19.8362753%" id="linearGradient-16">
            <stop stop-color="#97D6EE" offset="0%"></stop>
            <stop stop-color="#55C1EA" offset="70.329303%"></stop>
            <stop stop-color="#55C1EA" offset="100%"></stop>
        </linearGradient>
        <linearGradient x1="6.89015912%" y1="6.30038251%" x2="75.7828966%" y2="116.770678%" id="linearGradient-17">
            <stop stop-color="#7ACCEC" offset="0%"></stop>
            <stop stop-color="#3FB7ED" offset="100%"></stop>
        </linearGradient>
        <linearGradient x1="49.9966533%" y1="6.36281892%" x2="49.9966533%" y2="127.96135%" id="linearGradient-18">
            <stop stop-color="#1DA7E7" offset="0%"></stop>
            <stop stop-color="#37ABE7" stop-opacity="0" offset="100%"></stop>
        </linearGradient>
    </defs>
    <g id="Page-1" stroke="none" stroke-width="1" fill="none" fill-rule="evenodd">
        <g id="Microsoft_.NET_Logo" fill-rule="nonzero">
            <path d="M109.24156,25.5374 C120.55436,60.1321 124.84026,121.8459 157.92076,121.8459 L157.92076,121.8459 C160.43976,121.8459 162.98406,121.5995 165.53846,121.1137 L165.53846,121.1137 C135.46666,114.102 131.90266,53.0595 113.55266,21.448 L113.55266,21.448 C112.11386,22.7556 110.68526,24.1186 109.24156,25.5374" id="path12339" fill="url(#linearGradient-1)"></path>
            <path d="M113.55266,21.448 C131.90266,53.0595 135.46666,114.102 165.53846,121.1137 L165.53846,121.1137 C167.90096,120.6796 170.26856,120.0233 172.64116,119.1954 L172.64116,119.1954 C145.64876,105.9693 138.18756,46.6939 117.34886,18.1566 L117.34886,18.1566 C116.08676,19.207 114.81976,20.3075 113.55266,21.448" id="path12367" fill="url(#linearGradient-2)"></path>
            <path d="M139.99196,2.6483 C137.47796,2.6483 134.92846,2.8946 132.36926,3.3805 C125.67536,4.6425 118.87576,7.5248 112.02036,11.8864 C113.89306,13.734 115.67486,15.849 117.35086,18.1562 C124.32246,12.371 131.24856,8.0954 138.14956,5.5257 C140.73906,4.5666 143.31886,3.8449 145.90836,3.3704 C144.04056,2.8954 142.07176,2.6483 139.99196,2.6483" id="path12379" fill="#14559A"></path>
            <path d="M193.71216,107.0039 C196.47346,104.8082 199.23986,102.3798 202.01126,99.7298 C190.51666,65.2962 186.40246,2.6992 153.08966,2.6992 C150.70696,2.6992 148.30406,2.9213 145.90616,3.3655 C176.25056,10.9127 180.13766,76.9323 193.71216,107.0039" id="path12459" fill="url(#linearGradient-3)"></path>
            <path d="M145.90716,3.3679 C144.03936,2.8934 142.07066,2.6463 139.99076,2.6463 L153.09076,2.6943 C150.70796,2.6943 148.30506,2.9164 145.90716,3.3659" id="path12521" fill="#3092C4"></path>
            <path d="M193.13036,114.3189 C191.82796,113.0771 190.59136,111.7141 189.37456,110.2602 C183.77106,114.228 178.18786,117.2367 172.64016,119.1954 C174.61376,120.1598 176.68346,120.8767 178.87966,121.3209 C180.58066,121.6682 182.34266,121.8459 184.19516,121.8459 C190.41966,121.8459 195.34146,121.1089 199.53136,119.0997 C197.22456,117.8526 195.10926,116.2372 193.13036,114.3189" id="path12525" fill="#1969BC"></path>
            <path d="M138.14716,5.5314 C165.32646,19.7469 167.68896,84.1209 189.37576,110.2602 L189.37576,110.2602 C190.82966,109.2356 192.26836,108.1501 193.70706,107.0039 L193.70706,107.0039 C180.13266,76.9323 176.25056,10.9074 145.91126,3.3655 L145.91126,3.3655 C143.32156,3.8501 140.73686,4.5674 138.14716,5.5314" id="path12553" fill="url(#linearGradient-4)"></path>
            <path d="M117.34886,18.1566 C138.18756,46.6939 145.64876,105.9693 172.64116,119.1954 L172.64116,119.1954 C178.18906,117.2367 183.77236,114.228 189.37576,110.2602 L189.37576,110.2602 C167.68896,84.1209 165.32646,19.7469 138.14716,5.5314 L138.14716,5.5314 C131.24636,8.0958 124.32036,12.3714 117.34886,18.1566" id="path12581" fill="url(#linearGradient-5)"></path>
            <path d="M95.90886,24.7042 C92.64266,32.0899 89.30586,41.7972 85.27236,54.4681 C93.29386,43.1651 101.29016,33.4274 109.24096,25.5374 C108.14556,22.1701 106.96936,19.0656 105.70226,16.2989 C102.45126,18.7878 99.17496,21.5897 95.90886,24.7042" id="path12651" fill="url(#linearGradient-6)"></path>
            <path d="M108.59856,14.1694 C107.63936,14.8559 106.67536,15.5578 105.70616,16.2997 C106.97306,19.0661 108.14416,22.1709 109.23986,25.5378 C110.68326,24.1243 112.11686,22.7564 113.55056,21.4488 C112.01106,18.8035 110.37546,16.3602 108.59856,14.1694" id="path12655" fill="#2B74B1"></path>
            <path d="M112.02036,11.8864 C110.87946,12.6085 109.74386,13.3705 108.59776,14.1681 C110.37466,16.359 112.01026,18.8023 113.55506,21.4528 C114.82226,20.3067 116.08916,19.2013 117.35126,18.1562 C115.67526,15.8494 113.89346,13.734 112.02036,11.8864" id="path12659" fill="#125A9E"></path>
            <path d="M297.40626,0.0139 C282.03446,59.2941 249.92826,106.9082 223.01156,118.9127 C223.01156,118.9127 222.96056,118.9127 222.96056,118.9127 C222.47096,119.1348 221.98626,119.3368 221.50676,119.5334 C221.44076,119.5734 221.38076,119.5784 221.32986,119.6024 C221.18846,119.6594 221.05726,119.7034 220.91586,119.7599 C220.84986,119.7999 220.78986,119.8129 220.72936,119.8369 C220.50236,119.9179 220.28006,119.9864 220.05796,120.0752 C219.96196,120.1152 219.87136,120.1402 219.78006,120.1722 C219.67906,120.2122 219.56276,120.2492 219.44686,120.2813 C219.34596,120.3213 219.24016,120.3503 219.12376,120.3943 C219.02776,120.4343 218.92676,120.4513 218.83626,120.4913 C218.63916,120.5483 218.45786,120.5963 218.26076,120.6649 C218.17976,120.6649 218.10446,120.7089 218.01846,120.7299 C217.89726,120.7699 217.76076,120.7989 217.62956,120.8349 C217.53856,120.8749 217.46316,120.8879 217.36706,120.9079 C217.23056,120.9479 217.07906,120.9849 216.94296,121.017 C216.76126,121.057 216.59976,121.094 216.42806,121.1301 C217.64466,121.5795 218.91176,121.8065 220.27986,121.8065 C245.80326,121.8065 271.53826,76.0655 314.11956,0 L297.40016,0 L297.40626,0.0139 Z" id="path12741" fill="url(#linearGradient-7)"></path>
            <path d="M79.72956,5.054 C79.74556,5.054 79.76556,5.014 79.77556,5.014 C79.79556,5.014 79.82656,5.014 79.83656,4.974 C79.83656,4.974 79.85656,4.974 79.86856,4.974 C80.00986,4.926 80.14116,4.869 80.28246,4.8165 C80.31846,4.8165 80.33746,4.8165 80.36346,4.7765 C80.39946,4.7765 80.43446,4.7365 80.46966,4.7315 C80.62116,4.6835 80.77256,4.6265 80.91396,4.574 C80.91396,4.574 80.92996,4.574 80.93796,4.574 C81.27636,4.4731 81.58916,4.3479 81.91726,4.2308 C81.96326,4.2308 82.00826,4.1908 82.06346,4.1908 C82.19996,4.1468 82.34136,4.0978 82.48246,4.0656 C82.54846,4.0256 82.61376,4.0256 82.67426,4.0046 C82.82046,3.9606 82.96226,3.9116 83.09836,3.8794 C83.15936,3.8794 83.21466,3.8394 83.25986,3.8354 C83.72936,3.7062 84.19376,3.585 84.66326,3.4719 C84.72926,3.4719 84.78446,3.4319 84.85506,3.4279 C84.99116,3.3879 85.11766,3.3669 85.26396,3.3469 C85.32496,3.3069 85.39526,3.3069 85.46596,3.2859 C85.60206,3.2459 85.73326,3.2419 85.87986,3.2089 C85.91586,3.2089 85.93486,3.2089 85.97586,3.2089 C86.25856,3.1519 86.54636,3.1039 86.82906,3.0514 C86.88006,3.0514 86.94496,3.0514 87.00066,3.0514 C87.13676,3.0114 87.25796,3.0074 87.39446,2.9824 C87.46946,2.9824 87.54586,2.9424 87.61656,2.9424 C87.74256,2.9424 87.86896,2.9024 87.99496,2.8854 C88.06096,2.8854 88.12616,2.8854 88.20216,2.8454 C88.49976,2.8054 88.80786,2.7894 89.12086,2.7644 C88.23746,2.6794 87.32876,2.623 86.40496,2.623 C57.66084,2.623 18.05814,55.9565 0.21799,125.0252 C0.21799,125.0252 1.52041,125.0252 3.65578,125.0252 C9.36523,114.8433 14.49415,105.2114 19.18388,96.17 C31.67804,47.2486 57.12574,13.8852 79.73136,5.0461" id="path12803" fill="url(#linearGradient-8)"></path>
            <path d="M95.90916,24.7042 C99.17546,21.5897 102.45156,18.7878 105.70256,16.2993 C104.96066,14.6738 104.19336,13.1694 103.37026,11.7911 C100.74036,14.9815 98.33746,19.1917 95.90916,24.7042" id="path12807" fill="#0D82CA"></path>
            <path d="M98.27046,5.4583 C100.14836,7.0333 101.82916,9.1991 103.36906,11.7939 C103.85366,11.1982 104.34356,10.6478 104.85326,10.1329 C102.71806,8.139 100.41086,6.5034 97.90696,5.2717 C98.00796,5.3277 98.10886,5.3727 98.21386,5.4171 C98.21386,5.4171 98.25386,5.4571 98.27086,5.4571" id="path12811" fill="#0D82CA"></path>
            <path d="M19.18259,96.1759 C45.39256,45.669 57.811,13.7041 79.73006,5.0516 L79.73006,5.0516 C57.1295,13.8963 31.67675,47.2593 19.18259,96.1759" id="path12831" fill="url(#linearGradient-9)"></path>
            <path d="M104.85156,10.1316 C104.34196,10.6518 103.85736,11.197 103.36746,11.7927 C104.19046,13.1706 104.95746,14.6701 105.70496,16.3005 C106.67416,15.5586 107.63816,14.8567 108.59736,14.1702 C107.41126,12.7062 106.15926,11.3484 104.85156,10.1316" id="path12843" fill="#127BCA"></path>
            <path d="M31.08107,124.8041 L31.08107,124.8041 C30.91953,124.8441 30.75799,124.8441 30.60654,124.8611 C30.55604,124.8611 30.54594,124.8611 30.51564,124.8611 C30.37914,124.8611 30.23779,124.9011 30.11179,124.9011 C30.11179,124.9011 30.06129,124.9011 30.04599,124.9011 C29.71806,124.9411 29.39478,124.9411 29.08179,124.9661 L28.98083,124.9661 C55.50884,124.2238 67.63446,110.9419 73.65186,91.6782 C78.22546,77.0741 81.98136,64.7716 85.27276,54.4483 C74.16176,70.0875 63.00026,88.7301 51.77826,109.6144 C46.36664,119.6804 38.13817,123.8853 31.08086,124.7843" id="path12923" fill="url(#linearGradient-10)"></path>
            <path d="M31.08107,124.794 L31.08107,124.794 C38.13838,123.895 46.36686,119.695 51.77847,109.6241 L51.77847,109.6241 C63.00046,88.745 74.16696,70.0972 85.26786,54.458 L85.26786,54.458 C89.30636,41.7819 92.63816,32.0798 95.90936,24.6941 L95.90936,24.6941 C73.78336,45.755 51.57149,80.7742 31.08107,124.7839" id="path12949" fill="url(#linearGradient-11)"></path>
            <path d="M19.18134,96.1771 C14.49181,105.2185 9.3629,114.8504 3.65324,125.0323 C6.12199,125.0323 9.69607,125.0323 13.65382,125.0323 C14.97644,114.9206 16.85435,105.2787 19.18134,96.1819" id="path12961" fill="#05A1E6"></path>
            <path d="M88.20086,2.8712 C88.11986,2.8712 88.05946,2.9112 87.98886,2.9112 L87.98886,2.9112 C87.86766,2.9512 87.74126,2.9512 87.61526,2.9642 L87.61526,2.9642 C87.54026,2.9642 87.46906,2.9642 87.39316,3.0042 L87.39316,3.0042 C87.25666,3.0442 87.13066,3.0482 86.99936,3.0732 L86.99936,3.0732 C86.93836,3.0732 86.87826,3.0732 86.82776,3.1132 L86.82776,3.1132 C86.53976,3.1612 86.25726,3.2142 85.97456,3.2626 L85.97456,3.2626 C85.92456,3.2626 85.90856,3.2626 85.87856,3.2626 L85.87856,3.2626 C85.73236,3.3026 85.60076,3.3236 85.46466,3.3436 L85.46466,3.3436 C85.39366,3.3836 85.32326,3.3836 85.25746,3.3996 L85.25746,3.3996 C85.12136,3.4396 84.98486,3.4566 84.85366,3.4806 L84.85366,3.4806 C84.78266,3.5206 84.72766,3.5206 84.66176,3.5246 L84.66176,3.5246 C84.19236,3.6377 83.72786,3.7589 83.25836,3.8881 L83.25836,3.8881 C83.20836,3.8881 83.15746,3.9281 83.09686,3.9361 L83.09686,3.9361 C82.95556,3.9761 82.81906,4.0171 82.67286,4.0613 L82.67286,4.0613 C82.61186,4.1013 82.54156,4.1013 82.48096,4.1173 L82.48096,4.1173 C82.33966,4.1573 82.19826,4.1983 82.06196,4.2425 L82.06196,4.2425 C82.00696,4.2425 81.96106,4.2825 81.91056,4.2825 L81.91056,4.2825 C81.58746,4.4036 81.26946,4.5248 80.93626,4.6258 L80.93626,4.6258 C80.93626,4.6258 80.93626,4.6258 80.93626,4.6258 L80.93626,4.6258 C80.79496,4.6698 80.64346,4.7267 80.49206,4.7792 L80.49206,4.7792 C80.43106,4.8192 80.37576,4.8282 80.30546,4.8562 L80.30546,4.8562 C80.16406,4.9002 80.02276,4.9572 79.89146,5.0097 L79.89146,5.0097 C79.84146,5.0497 79.79056,5.0537 79.75536,5.0747 L79.75536,5.0747 C57.83635,13.7272 45.41791,45.6921 19.20794,96.199 L19.20794,96.199 C16.88074,105.2958 14.99778,114.9377 13.68022,125.049 L13.68022,125.049 L15.0836,125.049 C19.0363,125.049 20.15194,125.009 24.70032,125.009 L24.70032,125.009 L24.93253,125.009 L25.60898,125.009 L25.8412,125.009 L25.907,125.009 L26.13921,125.009 L26.27046,125.009 L26.36136,125.009 L26.54309,125.009 L27.10849,125.009 L27.67388,125.009 L28.1484,125.009 L28.27441,125.009 C28.54701,125.009 28.82465,125.009 29.10735,125.009 L29.10735,125.009 C29.42033,124.969 29.74342,124.969 30.07155,124.944 L30.07155,124.944 C30.07155,124.944 30.12205,124.944 30.13215,124.944 L30.13215,124.944 C30.26865,124.944 30.40475,124.904 30.536,124.904 L30.536,124.904 C30.5865,124.904 30.5913,124.904 30.6317,124.904 L30.6317,124.904 C30.77789,124.904 30.94468,124.864 31.10622,124.847 L31.10622,124.847 L31.10622,124.847 C51.59665,80.8373 73.80846,45.8181 95.93446,24.7572 L95.93446,24.7572 C98.36766,19.2447 100.76556,15.0345 103.39066,11.8493 L103.39066,11.8493 C101.85596,9.2546 100.17496,7.0839 98.29706,5.5085 L98.29706,5.5085 C98.29706,5.5085 98.24606,5.5085 98.24206,5.4685 L98.24206,5.4685 C98.13586,5.4245 98.03536,5.3715 97.92916,5.3191 L97.92916,5.3191 C97.82286,5.2621 97.73206,5.2181 97.62136,5.1616 L97.62136,5.1616 C97.52536,5.1216 97.41426,5.0686 97.31846,5.0162 L97.31846,5.0162 C97.18726,4.9762 97.08106,4.9192 96.96516,4.8667 L96.96516,4.8667 C96.86916,4.8267 96.78336,4.7857 96.68726,4.7456 L96.68726,4.7456 C96.49016,4.6686 96.29356,4.5881 96.10676,4.5033 L96.10676,4.5033 C96.02076,4.4633 95.94036,4.4423 95.85916,4.4103 L95.85916,4.4103 C95.72306,4.3613 95.56636,4.2972 95.42506,4.2366 L95.42506,4.2366 C95.35406,4.1966 95.27356,4.1886 95.19286,4.1596 L95.19286,4.1596 C94.98606,4.0906 94.78396,4.0183 94.59206,3.9536 L94.59206,3.9536 C94.54206,3.9536 94.54206,3.9536 94.54206,3.9536 L94.54206,3.9536 C94.30976,3.8766 94.08266,3.8204 93.84536,3.7557 L93.84536,3.7557 C93.79036,3.7157 93.74436,3.7157 93.68906,3.7077 L93.68906,3.7077 C93.48186,3.6507 93.30016,3.5946 93.10346,3.5421 L93.10346,3.5421 C93.05346,3.5421 93.00746,3.5021 92.96736,3.5021 L92.96736,3.5021 C92.49286,3.3769 92.00316,3.276 91.50846,3.1831 L91.50846,3.1831 C91.45746,3.1831 91.40756,3.1431 91.35706,3.1431 L91.35706,3.1431 C91.14506,3.1031 90.93806,3.0661 90.72606,3.0421 L90.72606,3.0421 C90.67506,3.0021 90.64506,3.0021 90.60006,3.0021 L90.60006,3.0021 C90.34766,2.9621 90.10026,2.9331 89.85286,2.9051 L89.85286,2.9051 C89.80286,2.9051 89.76686,2.9051 89.72166,2.9051 L89.72166,2.9051 C89.51976,2.8651 89.33316,2.8611 89.14616,2.8401 L89.14616,2.8401 C88.82796,2.8801 88.52526,2.8971 88.22736,2.9251" id="path12981" fill="url(#linearGradient-12)"></path>
            <path d="M237.36346,32.8317 C232.32036,48.9858 228.23636,62.3129 224.68256,73.2775 L224.68256,73.2775 C238.51946,54.2359 252.14946,30.2822 265.12846,2.639 L265.12846,2.639 C249.98886,7.3939 241.91186,18.2781 237.36346,32.8317" id="path13003" fill="url(#linearGradient-13)"></path>
            <path d="M225.12166,117.9031 C224.41496,118.2625 223.70826,118.6046 223.01156,118.9127 C249.92826,106.9082 282.03446,59.2941 297.40626,0.0139 L294.29136,0.0139 C258.97456,63.1004 247.61626,105.3332 225.12166,117.9031" id="path13093" fill="url(#linearGradient-14)"></path>
            <path d="M207.54546,112.6029 C213.40126,105.4548 218.17156,93.3041 224.68406,73.2779 C217.17206,83.5963 209.61036,92.4661 202.04296,99.6999 C202.04296,99.7399 202.04296,99.7399 202.00296,99.7649 C203.65396,104.7121 205.46596,109.0785 207.53086,112.6021" id="path13097" fill="#079AE1"></path>
            <path d="M207.54546,112.6029 C205.55126,115.0362 203.44146,116.889 201.09386,118.2621 C200.57896,118.561 200.05926,118.8425 199.52896,119.1001 C202.00786,120.4377 204.71326,121.3314 207.74206,121.6896 L207.74206,121.6896 L207.74206,121.6896 C208.18596,121.7336 208.62536,121.7746 209.08496,121.8067 L209.16596,121.8067 C209.37196,121.8067 209.59006,121.8067 209.81216,121.8467 L209.90116,121.8467 C210.12336,121.8467 210.34586,121.8467 210.56266,121.8467 C210.80096,121.8467 211.03726,121.8467 211.27466,121.8467 C211.35166,121.8467 211.42416,121.8467 211.49686,121.8467 C211.65836,121.8467 211.83196,121.8467 212.00166,121.8467 C212.08266,121.8467 212.16716,121.8467 212.24796,121.8067 C212.40546,121.8067 212.57106,121.8067 212.73256,121.7667 C212.77256,121.7667 212.77256,121.7667 212.78956,121.7667 C212.85456,121.7667 212.91066,121.7667 212.97126,121.7667 C213.13686,121.7667 213.31856,121.7267 213.49626,121.7097 C213.49626,121.7097 213.53626,121.7097 213.53626,121.7097 C213.58926,121.7097 213.64526,121.6697 213.69776,121.6697 C213.88356,121.6297 214.07746,121.6127 214.25836,121.5847 C214.31936,121.5847 214.36336,121.5847 214.42396,121.5847 C214.62986,121.5447 214.84276,121.5197 215.05476,121.4797 L215.09476,121.4797 C215.13476,121.4797 215.13876,121.4797 215.15576,121.4797 C215.57986,121.3987 215.99376,121.3182 216.41256,121.2132 C212.93946,119.941 210.03176,116.9424 207.52786,112.6717" id="path13101" fill="#1969BC"></path>
            <path d="M157.92136,121.8467 C160.44056,121.8467 162.98486,121.6004 165.53916,121.1097 C167.90176,120.6808 170.26916,120.0241 172.64176,119.1962 C174.61576,120.1606 176.68546,120.8775 178.87636,121.3217 C180.57746,121.669 182.34426,121.8467 184.19716,121.8467 L157.92136,121.8467 Z" id="path13105" fill="#1E5CB3"></path>
            <path d="M184.19756,121.8467 C190.41686,121.8467 195.34386,121.1097 199.52896,119.1005 C202.00746,120.4381 204.71326,121.3318 207.74206,121.6904 L207.74206,121.6904 L207.74206,121.6904 C208.18636,121.7344 208.62576,121.7754 209.08496,121.8075 L209.16596,121.8075 C209.37196,121.8075 209.59006,121.8075 209.81216,121.8475 L209.90516,121.8475 C210.12726,121.8475 210.34936,121.8475 210.56666,121.8475 L184.17976,121.8475 L184.19756,121.8467 Z" id="path13109" fill="#1E5CB3"></path>
            <path d="M210.58236,121.8467 C210.82466,121.8467 211.06216,121.8467 211.29926,121.8467 C211.36826,121.8467 211.44866,121.8467 211.52136,121.8467 C211.68286,121.8467 211.84846,121.8467 212.02136,121.8467 C212.10636,121.8467 212.18686,121.8467 212.26766,121.8067 C212.42516,121.8067 212.59076,121.8067 212.75756,121.7667 C212.79756,121.7667 212.79756,121.7667 212.81056,121.7667 C212.87556,121.7667 212.93576,121.7667 212.99636,121.7667 C213.16186,121.7667 213.34366,121.7267 213.51646,121.7107 C213.51646,121.7107 213.55646,121.7107 213.56046,121.7107 C213.61346,121.7107 213.66546,121.6707 213.71796,121.6707 C213.90376,121.6307 214.09766,121.6147 214.27816,121.5857 C214.33916,121.5857 214.38716,121.5857 214.45176,121.5457 C214.65776,121.5057 214.87096,121.4847 215.08306,121.4448 L215.12306,121.4448 C215.16306,121.4448 215.16706,121.4448 215.18406,121.4448 C215.60816,121.3638 216.02206,121.2832 216.44086,121.1782 L216.44086,121.1782 C217.65726,121.6273 218.92456,121.8547 220.29236,121.8547 L210.58986,121.8947 L210.58236,121.8467 Z" id="path13113" fill="#1D60B5"></path>
            <path d="M202.01916,99.7657 C202.01916,99.7657 202.01916,99.7257 202.01916,99.7257 C199.24786,102.3758 196.48146,104.8042 193.71996,106.9999 C192.27616,108.146 190.83766,109.2312 189.38386,110.2562 C190.60026,111.71 191.83726,113.073 193.13966,114.3149 C195.11856,116.2328 197.23346,117.8486 199.54066,119.0953 C200.06566,118.8368 200.59066,118.5549 201.10036,118.2573 C203.45276,116.8842 205.56296,115.0317 207.55716,112.5985 C205.49226,109.0749 203.68016,104.708 202.02926,99.7609" id="path13117" fill="#175FAB"></path>
            <path d="M284.42736,0.0139 L271.33246,0.0139 C270.89306,0.0139 270.45886,0.0139 270.02996,0.0139 L270.02996,0.0139 C269.61076,0.0139 269.20696,0.0139 268.79826,0.0139 L268.79826,0.0139 L268.75026,0.0139 C267.90216,0.0539 267.07956,0.0829 266.26656,0.1351 L266.26656,0.1351 C265.88296,0.9582 265.48916,1.7812 265.11036,2.6091 L265.11036,2.6091 C252.13176,30.2523 238.50176,54.206 224.66486,73.2476 L224.66486,73.2476 C218.15776,93.2734 213.38226,105.4245 207.52636,112.5727 L207.52636,112.5727 C210.03026,116.8434 212.94306,119.8468 216.40606,121.119 L216.40606,121.119 C216.50706,121.079 216.58776,121.079 216.67866,121.058 L216.67866,121.058 C216.67866,121.058 216.72866,121.058 216.73466,121.058 L216.73466,121.058 C216.79566,121.058 216.86066,121.018 216.92656,121.018 L216.92656,121.018 C217.06786,120.978 217.21936,120.953 217.36066,120.909 L217.36066,120.909 C217.45166,120.869 217.52706,120.865 217.61836,120.836 L217.61836,120.836 C217.74956,120.796 217.88566,120.767 218.00686,120.735 L218.00686,120.735 C218.08786,120.695 218.16836,120.682 218.24916,120.666 L218.24916,120.666 C218.45106,120.601 218.63276,120.5529 218.82466,120.4923 L218.82466,120.4923 C218.91566,120.4523 219.01166,120.4193 219.11256,120.3953 L219.11256,120.3953 C219.22366,120.3553 219.33466,120.3263 219.43566,120.2782 L219.43566,120.2782 C219.55196,120.2382 219.66786,120.2172 219.76886,120.1732 L219.76886,120.1732 C219.85986,120.1332 219.95546,120.1082 220.04146,120.0722 L220.04146,120.0722 C220.26836,119.9912 220.49076,119.9228 220.71786,119.8339 L220.71786,119.8339 C220.77886,119.8339 220.83906,119.7779 220.90486,119.7649 L220.90486,119.7649 C221.04096,119.7079 221.18236,119.6639 221.31886,119.6033 L221.31886,119.6033 C221.36886,119.5633 221.42986,119.5593 221.49526,119.5383 L221.49526,119.5383 C221.96986,119.3404 222.45946,119.1385 222.94916,118.9176 L222.94916,118.9176 C222.94916,118.9176 223.00016,118.9176 223.00016,118.9176 L223.00016,118.9176 C223.69676,118.6107 224.40356,118.2662 225.10526,117.908 L225.10526,117.908 C247.60486,105.3381 258.96336,63.1053 294.28016,0.0188 L294.28016,0.0188 L284.41606,0.0188 L284.42736,0.0139 Z" id="path13139" fill="url(#linearGradient-15)"></path>
            <path d="M89.12066,2.786 C89.17666,2.786 89.22686,2.786 89.28216,2.826 C89.41826,2.826 89.55476,2.826 89.69106,2.87 C89.74206,2.87 89.78706,2.87 89.82756,2.87 C90.07476,2.91 90.32226,2.931 90.57466,2.967 C90.62066,2.967 90.66066,2.967 90.70066,3.007 C90.90746,3.047 91.11966,3.08 91.33166,3.112 C91.37766,3.112 91.43796,3.152 91.48836,3.152 C91.97306,3.249 92.46776,3.3499 92.94226,3.4751 C92.98726,3.4751 93.03326,3.5151 93.07356,3.5151 C93.27546,3.5631 93.45716,3.6241 93.65906,3.6806 C93.72006,3.6806 93.76486,3.7206 93.82066,3.7296 C94.05806,3.7906 94.28006,3.8508 94.51226,3.9275 C94.52226,3.9275 94.53626,3.9275 94.56326,3.9675 C94.75986,4.0275 94.96186,4.1048 95.16896,4.1734 C95.24996,4.2134 95.32526,4.2304 95.40116,4.2504 C95.54256,4.3114 95.69926,4.3715 95.83536,4.4281 C95.91636,4.4281 95.99686,4.4841 96.08246,4.5131 C96.26906,4.5981 96.46616,4.6746 96.65796,4.7554 C96.75896,4.7954 96.84456,4.8404 96.94066,4.8765 C97.05176,4.9335 97.16766,4.9856 97.28886,5.026 C97.38976,5.074 97.50086,5.1269 97.59656,5.1713 C97.70276,5.2283 97.80336,5.2723 97.90466,5.3288 C100.40856,6.5606 102.71556,8.2014 104.85096,10.1904 C105.63846,9.3625 106.46126,8.6202 107.31446,7.9539 C102.64486,4.6423 97.35446,2.7543 91.25126,2.7543 C90.54446,2.7543 89.83776,2.7943 89.12096,2.8473" id="path13231" fill="#7DCBEC"></path>
            <path d="M104.85166,10.1316 C106.15916,11.348 107.41106,12.7062 108.59736,14.1702 C109.74326,13.3726 110.87916,12.6052 112.02006,11.8884 C110.52576,10.3941 108.95076,9.0513 107.31006,7.8951 C106.45696,8.5566 105.63916,9.3037 104.85166,10.1316" id="path13235" fill="#5EC5ED"></path>
            <g id="g13243" transform="translate(107.045425, 7.035707) scale(-1, 1) rotate(-180.000000) translate(-107.045425, -7.035707) translate(84.328768, 1.987561)" fill="url(#linearGradient-16)">
                <path d="M4.79069036,9.29868456 C5.50752707,9.35926231 6.21426748,9.38450304 6.92100789,9.38450304 C13.0242162,9.38450304 18.314673,7.49649651 22.9842078,4.18996101 C27.9111981,8.07703328 33.8680102,9.4349845 42.1419211,9.4349845 L2.07478792,9.4349845 C2.99859861,9.4349845 3.9022167,9.3794549 4.79069036,9.29868456" id="path13245"></path>
            </g>
            <g id="g13253" transform="translate(124.713935, 7.035707) scale(-1, 1) rotate(-180.000000) translate(-124.713935, -7.035707) translate(104.521352, 1.987561)" fill="url(#linearGradient-17)">
                <path d="M21.9493379,9.4349845 C13.675427,9.4349845 7.71861493,8.07703328 2.79162463,4.18996101 C4.42722387,3.03393563 6.00224536,1.69112884 7.49649651,0.196877686 C14.3569267,4.55847566 21.1517309,7.44601505 27.8506204,8.7080515 C30.4049822,9.18762536 32.9542958,9.4349845 35.4682724,9.4349845 L21.9493379,9.4349845 L21.9493379,9.4349845 Z" id="path13255"></path>
            </g>
            <path d="M224.68256,73.2876 C228.24146,62.3129 232.31526,48.9911 237.36846,32.8317 C241.92196,18.2729 249.98386,7.3891 265.12316,2.639 C265.52306,1.826 265.90066,0.988 266.28956,0.165 C241.60896,1.6443 230.07396,14.1988 224.26856,32.7914 C214.11676,65.2509 207.96806,86.2916 202.04666,99.6995 C209.60876,92.4705 217.17086,83.5959 224.68256,73.2876" id="path13333" fill="url(#linearGradient-18)"></path>
        </g>
    </g>
</svg>