<?xml version="1.0" encoding="UTF-8"?>
<svg width="25px" height="25px" viewBox="0 0 25 25" version="1.1" xmlns="http://www.w3.org/2000/svg" xmlns:xlink="http://www.w3.org/1999/xlink">
    <!-- Generator: Sketch 45.1 (43504) - http://www.bohemiancoding.com/sketch -->
    <title>Shape</title>
    <desc>Created with Sketch.</desc>
    <defs></defs>
    <g id="Page-1" stroke="none" stroke-width="1" fill="none" fill-rule="evenodd">
        <g id="Development" transform="translate(-673.000000, -1726.000000)" fill-rule="nonzero" fill="#F22F46">
            <g id="twilio-logo-red" transform="translate(673.000000, 1726.000000)">
                <path d="M11.8186588,9.27436416 C11.8186588,10.6696225 10.6696225,11.8186588 9.27436416,11.8186588 C7.87910583,11.8186588 6.73006957,10.6696225 6.73006957,9.27436416 C6.73006957,7.87910583 7.87910583,6.73006957 9.27436416,6.73006957 C10.6696225,6.73006957 11.8186588,7.87910583 11.8186588,9.27436416 L11.8186588,9.27436416 Z M9.27436416,12.803547 C7.87910583,12.803547 6.73006957,13.9525832 6.73006957,15.3478416 C6.73006957,16.7430999 7.87910583,17.8921362 9.27436416,17.8921362 C10.6696225,17.8921362 11.8186588,16.7430999 11.8186588,15.3478416 C11.8186588,13.9525832 10.6696225,12.803547 9.27436416,12.803547 L9.27436416,12.803547 Z M24.6222057,12.3111029 C24.6222057,19.1232465 19.1232465,24.6222057 12.3111029,24.6222057 C5.49895928,24.6222057 0,19.1232465 0,12.3111029 C0,5.49895928 5.49895928,0 12.3111029,0 C19.1232465,0 24.6222057,5.49895928 24.6222057,12.3111029 Z M21.339245,12.3111029 C21.339245,7.3045877 17.317618,3.28296076 12.3111029,3.28296076 C7.3045877,3.28296076 3.28296076,7.3045877 3.28296076,12.3111029 C3.28296076,17.317618 7.3045877,21.339245 12.3111029,21.339245 C17.317618,21.339245 21.339245,17.317618 21.339245,12.3111029 Z M15.3478416,12.803547 C13.9525832,12.803547 12.803547,13.9525832 12.803547,15.3478416 C12.803547,16.7430999 13.9525832,17.8921362 15.3478416,17.8921362 C16.7430999,17.8921362 17.8921362,16.7430999 17.8921362,15.3478416 C17.8921362,13.9525832 16.7430999,12.803547 15.3478416,12.803547 Z M15.3478416,6.73006957 C13.9525832,6.73006957 12.803547,7.87910583 12.803547,9.27436416 C12.803547,10.6696225 13.9525832,11.8186588 15.3478416,11.8186588 C16.7430999,11.8186588 17.8921362,10.6696225 17.8921362,9.27436416 C17.8921362,7.87910583 16.7430999,6.73006957 15.3478416,6.73006957 Z" id="Shape"></path>
            </g>
        </g>
    </g>
</svg>