<?xml version="1.0" encoding="UTF-8"?>
<svg width="82px" height="82px" viewBox="0 0 82 82" version="1.1" xmlns="http://www.w3.org/2000/svg" xmlns:xlink="http://www.w3.org/1999/xlink">
    <!-- Generator: Sketch 45.1 (43504) - http://www.bohemiancoding.com/sketch -->
    <title>Group 17</title>
    <desc>Created with Sketch.</desc>
    <defs></defs>
    <g id="Page-1" stroke="none" stroke-width="1" fill="none" fill-rule="evenodd">
        <g id="Development" transform="translate(-1586.000000, -216.000000)">
            <g id="Group-14" transform="translate(1386.000000, 216.000000)">
                <g id="Group-7">
                    <g id="Group-17" transform="translate(200.000000, 0.000000)">
                        <rect id="Rectangle-2" stroke="#929292" stroke-width="5" x="2.5" y="2.5" width="76.1461346" height="76.1461346" rx="38.0730673"></rect>
                        <g id="facebook-app-symbol" transform="translate(32.000000, 25.000000)" fill-rule="nonzero" fill="#929292">
                            <path d="M10.3357654,30.6627972 L10.3357654,16.6770799 L15.0283065,16.6770799 L15.732326,11.2249804 L10.3357654,11.2249804 L10.3357654,7.74460996 C10.3357654,6.16659429 10.7721706,5.09119559 13.0376034,5.09119559 L15.9222651,5.09000971 L15.9222651,0.213459033 C15.4234034,0.148630734 13.7109876,0 11.7179127,0 C7.55605448,0 4.70677168,2.54036014 4.70677168,7.20463767 L4.70677168,11.2249804 L0,11.2249804 L0,16.6770799 L4.70677168,16.6770799 L4.70677168,30.6627972 L10.3357654,30.6627972 Z" id="f_1_"></path>
                        </g>
                    </g>
                </g>
            </g>
        </g>
    </g>
</svg>