<?xml version="1.0" encoding="UTF-8"?>
<svg width="82px" height="82px" viewBox="0 0 82 82" version="1.1" xmlns="http://www.w3.org/2000/svg" xmlns:xlink="http://www.w3.org/1999/xlink">
    <!-- Generator: Sketch 45.1 (43504) - http://www.bohemiancoding.com/sketch -->
    <title>Group 18</title>
    <desc>Created with Sketch.</desc>
    <defs></defs>
    <g id="Page-1" stroke="none" stroke-width="1" fill="none" fill-rule="evenodd">
        <g id="Development" transform="translate(-1686.000000, -216.000000)">
            <g id="Group-14" transform="translate(1386.000000, 216.000000)">
                <g id="Group-7">
                    <g id="Group-18" transform="translate(300.000000, 0.000000)">
                        <g id="github-logo" transform="translate(25.000000, 25.000000)" fill-rule="nonzero" fill="#929292">
                            <path d="M11.3840435,33.175625 C11.373604,32.1413753 11.3687039,31.2391098 11.3687039,30.4692547 L10.6691552,30.590267 C10.2231357,30.6719715 9.66047144,30.7065921 8.98116249,30.6967918 C8.30217312,30.6873111 7.59729821,30.6161525 6.86749648,30.4838486 C6.13737518,30.3527166 5.45827929,30.0485881 4.82967617,29.5721025 C4.20139262,29.0956168 3.75537309,28.4719139 3.49172409,27.7019523 L3.18759566,27.002084 C2.98487887,26.5361444 2.66573043,26.0185401 2.22972424,25.4511888 C1.79371804,24.8833048 1.3528117,24.498324 0.906792166,24.2956073 L0.693848997,24.1431702 C0.551957902,24.0418651 0.420293191,23.9196811 0.298535292,23.7778965 C0.176883917,23.6361119 0.0858051731,23.4942208 0.0249794857,23.3521167 C-0.0359527266,23.209906 0.0145400507,23.0932613 0.176990442,23.0017565 C0.339440833,22.9102516 0.63302331,22.8658308 1.05901617,22.8658308 L1.66706,22.9566965 C2.07260009,23.0379749 2.57422559,23.280745 3.17257565,23.6864982 C3.77060614,24.0919318 4.26221831,24.6190167 4.64751868,25.26754 C5.11409751,26.0990729 5.67622912,26.7326827 6.3355114,27.1686889 C6.99426105,27.6046951 7.65844347,27.8223254 8.32741951,27.8223254 C8.99639554,27.8223254 9.57418631,27.7716195 10.0610049,27.6707405 C10.5472908,27.5693288 11.0035367,27.4168918 11.4295296,27.2142815 C11.6120066,25.8552375 12.1088385,24.8111875 12.9195991,24.0813858 C11.7640176,23.9599475 10.7250808,23.7770443 9.80225601,23.5338481 C8.87996388,23.2903323 7.92688608,22.8951251 6.94366175,22.3471613 C5.95990479,21.7999432 5.14381794,21.1204212 4.49518815,20.3097671 C3.84645183,19.4986869 3.31404065,18.4338645 2.89870027,17.1162587 C2.48314685,15.7981202 2.27531687,14.2775846 2.27531687,12.5542256 C2.27531687,10.1004258 3.07638372,8.01232573 4.67819783,6.28875371 C3.92783682,4.44395642 3.99867584,2.37588305 4.89092795,0.0847466477 C5.47894511,-0.0979434642 6.3509575,0.0391540134 7.50653904,0.495186882 C8.66233362,0.9514328 9.508567,1.34227246 10.0460914,1.66632105 C10.5836158,1.9902631 11.0142957,2.26477763 11.3387704,2.48741456 C13.2247928,1.96043615 15.1711083,1.69689368 17.1782494,1.69689368 C19.1853906,1.69689368 21.1321322,1.96043615 23.0182611,2.48741456 L24.1739492,1.75782589 C24.964257,1.27100734 25.8975212,0.824881282 26.9715047,0.419341191 C28.0461273,0.0140141496 28.86786,-0.0976238897 29.4358505,0.0850662223 C30.3479162,2.37630915 30.4291947,4.44427599 29.6786206,6.28907329 C31.2803282,8.01264531 32.0817146,10.101278 32.0817146,12.5545452 C32.0817146,14.2779042 31.873139,15.8032334 31.4582247,17.1314918 C31.0427778,18.4599631 30.505786,19.5237202 29.8470364,20.3250001 C29.1875411,21.1261735 28.3662345,21.8003693 27.3830102,22.3474809 C26.3995728,22.8950186 25.4461754,23.2902258 24.5238833,23.5337416 C23.6011651,23.7772574 22.5622282,23.960267 21.4066467,24.0819184 C22.4606035,24.9939842 22.9876885,26.4336675 22.9876885,28.4003292 L23.0182611,33.175625 C23.0182611,33.540153 11.3941633,34.2098747 11.3840435,33.175625 Z" id="Shape"></path>
                        </g>
                        <rect id="Rectangle-2" stroke="#929292" stroke-width="5" x="2.5" y="2.5" width="76.1461346" height="76.1461346" rx="38.0730673"></rect>
                    </g>
                </g>
            </g>
        </g>
    </g>
</svg>