<?xml version="1.0" encoding="UTF-8"?>
<svg width="82px" height="82px" viewBox="0 0 82 82" version="1.1" xmlns="http://www.w3.org/2000/svg" xmlns:xlink="http://www.w3.org/1999/xlink">
    <!-- Generator: Sketch 45.1 (43504) - http://www.bohemiancoding.com/sketch -->
    <title>Group 12</title>
    <desc>Created with Sketch.</desc>
    <defs></defs>
    <g id="Page-1" stroke="none" stroke-width="1" fill="none" fill-rule="evenodd">
        <g id="Design" transform="translate(-1786.000000, -216.000000)">
            <g id="Group-14" transform="translate(1386.000000, 216.000000)">
                <g id="Group-7">
                    <g id="Group-10" transform="translate(400.000000, 0.000000)">
                        <g id="Group-12">
                            <rect id="Rectangle-2" stroke="#929292" stroke-width="5" x="2.5" y="2.5" width="76.1461346" height="76.1461346" rx="38.0730673"></rect>
                            <g id="Logo-2C-White-0p5in-R" transform="translate(25.271186, 22.000000)" fill="#979797">
                                <g id="Group-11">
                                    <path d="M31.6171852,31.616 L25.2906667,31.616 L25.2906667,21.7137778 C25.2906667,19.3528889 25.2491852,16.3152593 22.0017778,16.3152593 C18.7093333,16.3152593 18.2068148,18.8882963 18.2068148,21.5454815 L18.2068148,31.616 L11.8862222,31.616 L11.8862222,11.2545185 L17.952,11.2545185 L17.952,14.0385185 L18.0385185,14.0385185 C18.8823704,12.4373333 20.9481481,10.7496296 24.0272593,10.7496296 C30.4331852,10.7496296 31.6171852,14.9653333 31.6171852,20.4491852 L31.6171852,31.616 Z M4.75022222,8.47288889 C2.71762963,8.47288889 1.0797037,6.82903704 1.0797037,4.80237037 C1.0797037,2.77688889 2.71762963,1.13303704 4.75022222,1.13303704 C6.77451852,1.13303704 8.41837037,2.77688889 8.41837037,4.80237037 C8.41837037,6.82903704 6.77451852,8.47288889 4.75022222,8.47288889 Z M1.58222222,31.616 L7.91585185,31.616 L7.91585185,11.2545185 L1.58222222,11.2545185 L1.58222222,31.616 Z" id="Fill-10"></path>
                                </g>
                            </g>
                        </g>
                    </g>
                </g>
            </g>
        </g>
    </g>
</svg>