<?xml version="1.0" encoding="UTF-8"?>
<svg width="82px" height="82px" viewBox="0 0 82 82" version="1.1" xmlns="http://www.w3.org/2000/svg" xmlns:xlink="http://www.w3.org/1999/xlink">
    <!-- Generator: Sketch 45.1 (43504) - http://www.bohemiancoding.com/sketch -->
    <title>Group 15</title>
    <desc>Created with Sketch.</desc>
    <defs></defs>
    <g id="Page-1" stroke="none" stroke-width="1" fill="none" fill-rule="evenodd">
        <g id="Development" transform="translate(-1386.000000, -216.000000)">
            <g id="Group-14" transform="translate(1386.000000, 216.000000)">
                <g id="Group-7">
                    <g id="Group-15">
                        <rect id="Rectangle-2" stroke="#00AB6C" stroke-width="5" x="2.5" y="2.5" width="76.1461346" height="76.1461346" rx="38.0730673"></rect>
                        <g id="medium-seeklogo.com" transform="translate(22.000000, 25.000000)" fill-rule="nonzero">
                            <path d="M26.3090243,0.248117628 C25.7321203,-0.0268895951 25.2603302,0.250562137 25.2603302,0.866578317 L25.2603302,25.365444 L35.7912735,30.3925761 C36.9499706,30.9548131 37.8898841,30.5636917 37.8898841,29.536998 L37.8898841,5.94748955 C37.8898841,5.84970921 37.8287714,5.76415141 37.7383245,5.71526123 L26.3102466,0.264006935 L26.3102466,0.251784392 L26.3090243,0.248117628 L26.3090243,0.248117628 Z" id="Shape" fill="#32FC8D"></path>
                            <path d="M12.629554,19.3372857 L24.6443139,0.701573983 C24.9841007,0.176004623 25.7321203,-0.0317786125 26.3065799,0.23711734 L37.7517694,5.70059418 C37.8251046,5.73726181 37.8519943,5.82281961 37.8092153,5.88393233 L25.2591079,25.3678885 L12.629554,19.3397301 L12.629554,19.3372857 L12.629554,19.3372857 Z" id="Shape" fill="#0BE370"></path>
                            <path d="M1.74782369,0.580570805 C0.787131785,0.122225433 0.460789881,0.46323439 1.02424912,1.33836849 L12.629554,19.3372857 L25.2591079,25.365444 L12.6576658,5.81793058 C12.639332,5.78981874 12.6136646,5.76659591 12.5843305,5.75192885 L1.74782369,0.581793058 L1.74782369,0.580570805 L1.74782369,0.580570805 Z" id="Shape" fill="#14C767"></path>
                            <path d="M12.629554,29.52722 C12.629554,30.5539136 11.8436444,31.0183703 10.8817303,30.5588027 L1.04869421,25.865346 C0.47179017,25.5915611 0,24.8630975 0,24.2458591 L0,1.24058814 C0,0.419233234 0.629460977,0.0476679187 1.3994812,0.415566471 L12.56233,5.74459533 C12.6038866,5.76292914 12.629554,5.80326354 12.629554,5.84726469 L12.629554,29.5223309 L12.629554,29.52722 L12.629554,29.52722 Z" id="Shape" fill="#00AB6C"></path>
                        </g>
                    </g>
                </g>
            </g>
        </g>
    </g>
</svg>