<?xml version="1.0" encoding="UTF-8"?>
<svg width="82px" height="82px" viewBox="0 0 82 82" version="1.1" xmlns="http://www.w3.org/2000/svg" xmlns:xlink="http://www.w3.org/1999/xlink">
    <!-- Generator: Sketch 45.1 (43504) - http://www.bohemiancoding.com/sketch -->
    <title>Group 16</title>
    <desc>Created with Sketch.</desc>
    <defs></defs>
    <g id="Page-1" stroke="none" stroke-width="1" fill="none" fill-rule="evenodd">
        <g id="Development" transform="translate(-1486.000000, -216.000000)">
            <g id="Group-14" transform="translate(1386.000000, 216.000000)">
                <g id="Group-7">
                    <g id="Group-16" transform="translate(100.000000, 0.000000)">
                        <rect id="Rectangle-2" stroke="#929292" stroke-width="5" x="2.5" y="2.5" width="76.1461346" height="76.1461346" rx="38.0730673"></rect>
                        <g id="Spotify_logo_with_text" transform="translate(21.000000, 21.000000)" fill-rule="nonzero" fill="#929292">
                            <path d="M19.9990476,0.065952381 C8.98738095,0.065952381 0.0602380952,8.99285714 0.0602380952,20.0045238 C0.0602380952,31.0166667 8.98738095,39.9428571 19.9990476,39.9428571 C31.0119048,39.9428571 39.9380952,31.0166667 39.9380952,20.0045238 C39.9380952,8.99357143 31.0119048,0.0669047619 19.9988095,0.0669047619 L19.9990476,0.065952381 Z M29.1428571,28.8230952 C28.7857143,29.4088095 28.0190476,29.5945238 27.4333333,29.235 C22.7519048,26.3754762 16.8585714,25.7278571 9.91809524,27.3135714 C9.24928571,27.4659524 8.58261905,27.0469048 8.4302381,26.3778571 C8.27714286,25.7088095 8.69452381,25.0421429 9.365,24.8897619 C16.9602381,23.1545238 23.4752381,23.9016667 28.7309524,27.1135714 C29.3166667,27.4730952 29.502381,28.237381 29.1428571,28.8230952 L29.1428571,28.8230952 Z M31.5833333,23.3940476 C31.1333333,24.1254762 30.1761905,24.3564286 29.4452381,23.9064286 C24.0857143,20.6121429 15.9159524,19.6580952 9.57666667,21.582381 C8.75452381,21.8307143 7.88619048,21.367381 7.63666667,20.5466667 C7.38904762,19.7245238 7.85261905,18.8578571 8.67333333,18.6078571 C15.9145238,16.4107143 24.9166667,17.475 31.0714286,21.2571429 C31.802381,21.7071429 32.0333333,22.6642857 31.5833333,23.3942857 L31.5833333,23.3940476 Z M31.7928571,17.7407143 C25.3666667,13.9238095 14.7642857,13.5728571 8.62880952,15.435 C7.64357143,15.7338095 6.60166667,15.177619 6.30309524,14.192381 C6.00452381,13.2066667 6.5602381,12.1654762 7.54619048,11.8659524 C14.5892857,9.72785714 26.297619,10.1409524 33.6961905,14.5330952 C34.5842857,15.0590476 34.8747619,16.2035714 34.3485714,17.0885714 C33.8247619,17.9747619 32.6771429,18.2669048 31.7938095,17.7407143 L31.7928571,17.7407143 Z" id="Shape"></path>
                        </g>
                    </g>
                </g>
            </g>
        </g>
    </g>
</svg>